<svg version="1.1" viewBox="0.0 0.0 262.12598425196853 265.249343832021" fill="none" width="446.4pt" stroke="none" stroke-linecap="square" stroke-miterlimit="10" xmlns:xlink="http://www.w3.org/1999/xlink" xmlns="http://www.w3.org/2000/svg"><clipPath id="p.0"><path d="m0 0l262.12598 0l0 265.24933l-262.12598 0l0 -265.24933z" clip-rule="nonzero"/></clipPath><g clip-path="url(#p.0)"><path fill="#000000" fill-opacity="0.0" d="m0 0l262.12598 0l0 265.24933l-262.12598 0z" fill-rule="evenodd"/><path fill="#000000" fill-opacity="0.0" d="m9.154856 91.50394l20.425198 -40.850376l53.448814 0l20.425201 40.850376l-20.425201 40.850372l-53.448814 0z" fill-rule="evenodd"/><path stroke="#000000" stroke-width="1.0" stroke-linejoin="round" stroke-linecap="butt" d="m9.154856 91.50394l20.425198 -40.850376l53.448814 0l20.425201 40.850376l-20.425201 40.850372l-53.448814 0z" fill-rule="evenodd"/><path fill="#000000" fill-opacity="0.0" d="m29.580053 50.65356l53.448814 81.70079" fill-rule="evenodd"/><path stroke="#000000" stroke-width="1.0" stroke-linejoin="round" stroke-linecap="butt" d="m29.580053 50.65356l53.448814 81.70079" fill-rule="evenodd"/><path fill="#000000" fill-opacity="0.0" d="m29.580053 132.35431l53.448814 -81.70079" fill-rule="evenodd"/><path stroke="#000000" stroke-width="1.0" stroke-linejoin="round" stroke-linecap="butt" d="m29.580053 132.35431l53.448814 -81.70079" fill-rule="evenodd"/><path fill="#000000" fill-opacity="0.0" d="m9.154856 91.50394l94.29922 0" fill-rule="evenodd"/><path stroke="#000000" stroke-width="1.0" stroke-linejoin="round" stroke-linecap="butt" d="m9.154856 91.50394l94.29922 0" fill-rule="evenodd"/><path fill="#0000ff" d="m18.540682 50.212597l0 0c0 -5.0879745 4.1246204 -9.212597 9.212599 -9.212597l0 0c2.4433327 0 4.7865944 0.9706116 6.51429 2.698307c1.7276993 1.7276993 2.698307 4.070957 2.698307 6.51429l0 0c0 5.0879784 -4.1246185 9.212601 -9.212597 9.212601l0 0c-5.0879784 0 -9.212599 -4.1246223 -9.212599 -9.212601z" fill-rule="evenodd"/><path stroke="#000000" stroke-width="1.0" stroke-linejoin="round" stroke-linecap="butt" d="m18.540682 50.212597l0 0c0 -5.0879745 4.1246204 -9.212597 9.212599 -9.212597l0 0c2.4433327 0 4.7865944 0.9706116 6.51429 2.698307c1.7276993 1.7276993 2.698307 4.070957 2.698307 6.51429l0 0c0 5.0879784 -4.1246185 9.212601 -9.212597 9.212601l0 0c-5.0879784 0 -9.212599 -4.1246223 -9.212599 -9.212601z" fill-rule="evenodd"/><path fill="#cfe2f3" d="m0.115485564 91.062996l0 0c0 -5.087982 4.124621 -9.212601 9.212599 -9.212601l0 0c2.4433327 0 4.7865934 0.9706116 6.514291 2.6983032c1.7276974 1.7276993 2.698307 4.070961 2.698307 6.5142975l0 0c0 5.0879745 -4.1246204 9.212593 -9.212598 9.212593l0 0c-5.0879774 0 -9.212599 -4.1246185 -9.212599 -9.212593z" fill-rule="evenodd"/><path stroke="#000000" stroke-width="1.0" stroke-linejoin="round" stroke-linecap="butt" d="m0.115485564 91.062996l0 0c0 -5.087982 4.124621 -9.212601 9.212599 -9.212601l0 0c2.4433327 0 4.7865934 0.9706116 6.514291 2.6983032c1.7276974 1.7276993 2.698307 4.070961 2.698307 6.5142975l0 0c0 5.0879745 -4.1246204 9.212593 -9.212598 9.212593l0 0c-5.0879774 0 -9.212599 -4.1246185 -9.212599 -9.212593z" fill-rule="evenodd"/><path fill="#0000ff" d="m0 91.062996l0 0c0 -5.087982 4.124621 -9.212601 9.212599 -9.212601l0 0c2.4433327 0 4.7865934 0.9706116 6.514291 2.6983032c1.7276964 1.7276993 2.698308 4.070961 2.698308 6.5142975l0 0c0 5.0879745 -4.1246214 9.212593 -9.212599 9.212593l0 0c-5.087978 0 -9.212599 -4.1246185 -9.212599 -9.212593z" fill-rule="evenodd"/><path stroke="#000000" stroke-width="1.0" stroke-linejoin="round" stroke-linecap="butt" d="m0 91.062996l0 0c0 -5.087982 4.124621 -9.212601 9.212599 -9.212601l0 0c2.4433327 0 4.7865934 0.9706116 6.514291 2.6983032c1.7276964 1.7276993 2.698308 4.070961 2.698308 6.5142975l0 0c0 5.0879745 -4.1246214 9.212593 -9.212599 9.212593l0 0c-5.087978 0 -9.212599 -4.1246185 -9.212599 -9.212593z" fill-rule="evenodd"/><path fill="#00ff00" d="m10.977691 77.44095l7.858268 -13.606304l7.858267 13.606304z" fill-rule="evenodd"/><path stroke="#000000" stroke-width="1.0" stroke-linejoin="round" stroke-linecap="butt" d="m10.977691 77.44095l7.858268 -13.606304l7.858267 13.606304z" fill-rule="evenodd"/><path fill="#00ff00" d="m47.502625 54.6063l7.8582687 -13.6063l7.8582687 13.6063z" fill-rule="evenodd"/><path stroke="#000000" stroke-width="1.0" stroke-linejoin="round" stroke-linecap="butt" d="m47.502625 54.6063l7.8582687 -13.6063l7.8582687 13.6063z" fill-rule="evenodd"/><path fill="#00ff00" d="m85.321526 119.26509l7.858261 -13.6063l7.8582687 13.6063z" fill-rule="evenodd"/><path stroke="#000000" stroke-width="1.0" stroke-linejoin="round" stroke-linecap="butt" d="m85.321526 119.26509l7.858261 -13.6063l7.8582687 13.6063z" fill-rule="evenodd"/><path fill="#00ff00" d="m11.271653 118.62205l7.858268 -13.6063l7.8582687 13.6063z" fill-rule="evenodd"/><path stroke="#000000" stroke-width="1.0" stroke-linejoin="round" stroke-linecap="butt" d="m11.271653 118.62205l7.858268 -13.6063l7.8582687 13.6063z" fill-rule="evenodd"/><path fill="#980000" d="m43.447506 91.65092l12.70866 -12.708656l12.708664 12.708656l-12.708664 12.708664z" fill-rule="evenodd"/><path stroke="#000000" stroke-width="1.0" stroke-linejoin="round" stroke-linecap="butt" d="m43.447506 91.65092l12.70866 -12.708656l12.708664 12.708656l-12.708664 12.708664z" fill-rule="evenodd"/><path fill="#000000" fill-opacity="0.0" d="m83.20735 132.2441l20.425194 -40.850372l53.448814 0l20.425201 40.850372l-20.425201 40.850372l-53.448814 0z" fill-rule="evenodd"/><path stroke="#000000" stroke-width="1.0" stroke-linejoin="round" stroke-linecap="butt" d="m83.20735 132.2441l20.425194 -40.850372l53.448814 0l20.425201 40.850372l-20.425201 40.850372l-53.448814 0z" fill-rule="evenodd"/><path fill="#000000" fill-opacity="0.0" d="m103.632545 91.39372l53.448814 81.70079" fill-rule="evenodd"/><path stroke="#000000" stroke-width="1.0" stroke-linejoin="round" stroke-linecap="butt" d="m103.632545 91.39372l53.448814 81.70079" fill-rule="evenodd"/><path fill="#000000" fill-opacity="0.0" d="m103.632545 173.09447l53.448814 -81.70078" fill-rule="evenodd"/><path stroke="#000000" stroke-width="1.0" stroke-linejoin="round" stroke-linecap="butt" d="m103.632545 173.09447l53.448814 -81.70078" fill-rule="evenodd"/><path fill="#000000" fill-opacity="0.0" d="m83.20735 132.2441l94.29921 0" fill-rule="evenodd"/><path stroke="#000000" stroke-width="1.0" stroke-linejoin="round" stroke-linecap="butt" d="m83.20735 132.2441l94.29921 0" fill-rule="evenodd"/><path fill="#00ff00" d="m85.03018 118.1811l7.8582687 -13.606293l7.8582687 13.606293z" fill-rule="evenodd"/><path stroke="#000000" stroke-width="1.0" stroke-linejoin="round" stroke-linecap="butt" d="m85.03018 118.1811l7.8582687 -13.606293l7.8582687 13.606293z" fill-rule="evenodd"/><path fill="#00ff00" d="m85.32415 159.3622l7.858261 -13.606293l7.8582687 13.606293z" fill-rule="evenodd"/><path stroke="#000000" stroke-width="1.0" stroke-linejoin="round" stroke-linecap="butt" d="m85.32415 159.3622l7.858261 -13.606293l7.8582687 13.606293z" fill-rule="evenodd"/><path fill="#980000" d="m117.5 132.39108l12.708664 -12.708672l12.708664 12.708672l-12.708664 12.708649z" fill-rule="evenodd"/><path stroke="#000000" stroke-width="1.0" stroke-linejoin="round" stroke-linecap="butt" d="m117.5 132.39108l12.708664 -12.708672l12.708664 12.708672l-12.708664 12.708649z" fill-rule="evenodd"/><path fill="#000000" fill-opacity="0.0" d="m9.270341 173.86613l20.425198 -40.850372l53.44882 0l20.425201 40.850372l-20.425201 40.850388l-53.44882 0z" fill-rule="evenodd"/><path stroke="#000000" stroke-width="1.0" stroke-linejoin="round" stroke-linecap="butt" d="m9.270341 173.86613l20.425198 -40.850372l53.44882 0l20.425201 40.850372l-20.425201 40.850388l-53.44882 0z" fill-rule="evenodd"/><path fill="#000000" fill-opacity="0.0" d="m29.695538 133.01576l53.44882 81.70079" fill-rule="evenodd"/><path stroke="#000000" stroke-width="1.0" stroke-linejoin="round" stroke-linecap="butt" d="m29.695538 133.01576l53.44882 81.70079" fill-rule="evenodd"/><path fill="#000000" fill-opacity="0.0" d="m29.695538 214.71652l53.44882 -81.70079" fill-rule="evenodd"/><path stroke="#000000" stroke-width="1.0" stroke-linejoin="round" stroke-linecap="butt" d="m29.695538 214.71652l53.44882 -81.70079" fill-rule="evenodd"/><path fill="#000000" fill-opacity="0.0" d="m9.270341 173.86613l94.29922 0" fill-rule="evenodd"/><path stroke="#000000" stroke-width="1.0" stroke-linejoin="round" stroke-linecap="butt" d="m9.270341 173.86613l94.29922 0" fill-rule="evenodd"/><path fill="#cfe2f3" d="m0.23097113 173.4252l0 0c0 -5.087982 4.1246204 -9.212601 9.212598 -9.212601l0 0c2.4433336 0 4.7865934 0.9706116 6.514291 2.6983032c1.7276983 1.7277069 2.698308 4.0709534 2.698308 6.5142975l0 0c0 5.087967 -4.1246204 9.212601 -9.212599 9.212601l0 0c-5.0879774 0 -9.212598 -4.124634 -9.212598 -9.212601z" fill-rule="evenodd"/><path stroke="#000000" stroke-width="1.0" stroke-linejoin="round" stroke-linecap="butt" d="m0.23097113 173.4252l0 0c0 -5.087982 4.1246204 -9.212601 9.212598 -9.212601l0 0c2.4433336 0 4.7865934 0.9706116 6.514291 2.6983032c1.7276983 1.7277069 2.698308 4.0709534 2.698308 6.5142975l0 0c0 5.087967 -4.1246204 9.212601 -9.212599 9.212601l0 0c-5.0879774 0 -9.212598 -4.124634 -9.212598 -9.212601z" fill-rule="evenodd"/><path fill="#cfe2f3" d="m21.616798 214.71654l0 0c0 -5.087982 4.1246204 -9.212601 9.212599 -9.212601l0 0c2.4433308 0 4.7865925 0.9706116 6.514292 2.6983032c1.7276955 1.7277069 2.698307 4.0709686 2.698307 6.5142975l0 0c0 5.087982 -4.1246223 9.212601 -9.212599 9.212601l0 0c-5.0879784 0 -9.212599 -4.1246185 -9.212599 -9.212601z" fill-rule="evenodd"/><path stroke="#000000" stroke-width="1.0" stroke-linejoin="round" stroke-linecap="butt" d="m21.616798 214.71654l0 0c0 -5.087982 4.1246204 -9.212601 9.212599 -9.212601l0 0c2.4433308 0 4.7865925 0.9706116 6.514292 2.6983032c1.7276955 1.7277069 2.698307 4.0709686 2.698307 6.5142975l0 0c0 5.087982 -4.1246223 9.212601 -9.212599 9.212601l0 0c-5.0879784 0 -9.212599 -4.1246185 -9.212599 -9.212601z" fill-rule="evenodd"/><path fill="#0000ff" d="m21.616798 214.93701l0 0c0 -5.087982 4.1246204 -9.212601 9.212599 -9.212601l0 0c2.4433308 0 4.7865925 0.9706116 6.514292 2.6983032c1.7276955 1.7277069 2.698307 4.0709534 2.698307 6.5142975l0 0c0 5.087967 -4.1246223 9.212601 -9.212599 9.212601l0 0c-5.0879784 0 -9.212599 -4.124634 -9.212599 -9.212601z" fill-rule="evenodd"/><path stroke="#000000" stroke-width="1.0" stroke-linejoin="round" stroke-linecap="butt" d="m21.616798 214.93701l0 0c0 -5.087982 4.1246204 -9.212601 9.212599 -9.212601l0 0c2.4433308 0 4.7865925 0.9706116 6.514292 2.6983032c1.7276955 1.7277069 2.698307 4.0709534 2.698307 6.5142975l0 0c0 5.087967 -4.1246223 9.212601 -9.212599 9.212601l0 0c-5.0879784 0 -9.212599 -4.124634 -9.212599 -9.212601z" fill-rule="evenodd"/><path fill="#0000ff" d="m0.115485564 173.4252l0 0c0 -5.087982 4.124621 -9.212601 9.212599 -9.212601l0 0c2.4433327 0 4.7865934 0.9706116 6.514291 2.6983032c1.7276974 1.7277069 2.698307 4.0709534 2.698307 6.5142975l0 0c0 5.087967 -4.1246204 9.212601 -9.212598 9.212601l0 0c-5.0879774 0 -9.212599 -4.124634 -9.212599 -9.212601z" fill-rule="evenodd"/><path stroke="#000000" stroke-width="1.0" stroke-linejoin="round" stroke-linecap="butt" d="m0.115485564 173.4252l0 0c0 -5.087982 4.124621 -9.212601 9.212599 -9.212601l0 0c2.4433327 0 4.7865934 0.9706116 6.514291 2.6983032c1.7276974 1.7277069 2.698307 4.0709534 2.698307 6.5142975l0 0c0 5.087967 -4.1246204 9.212601 -9.212598 9.212601l0 0c-5.0879774 0 -9.212599 -4.124634 -9.212599 -9.212601z" fill-rule="evenodd"/><path fill="#00ff00" d="m11.093176 159.80315l7.858267 -13.606293l7.8582687 13.606293z" fill-rule="evenodd"/><path stroke="#000000" stroke-width="1.0" stroke-linejoin="round" stroke-linecap="butt" d="m11.093176 159.80315l7.858267 -13.606293l7.8582687 13.606293z" fill-rule="evenodd"/><path fill="#00ff00" d="m85.7336 160.15224l7.8582687 -13.606308l7.8582687 13.606308z" fill-rule="evenodd"/><path stroke="#000000" stroke-width="1.0" stroke-linejoin="round" stroke-linecap="butt" d="m85.7336 160.15224l7.8582687 -13.606308l7.8582687 13.606308z" fill-rule="evenodd"/><path fill="#00ff00" d="m49.245407 221.74016l7.8582687 -13.606293l7.8582687 13.606293z" fill-rule="evenodd"/><path stroke="#000000" stroke-width="1.0" stroke-linejoin="round" stroke-linecap="butt" d="m49.245407 221.74016l7.8582687 -13.606293l7.8582687 13.606293z" fill-rule="evenodd"/><path fill="#00ff00" d="m11.387139 200.98425l7.858268 -13.606293l7.858267 13.606293z" fill-rule="evenodd"/><path stroke="#000000" stroke-width="1.0" stroke-linejoin="round" stroke-linecap="butt" d="m11.387139 200.98425l7.858268 -13.606293l7.858267 13.606293z" fill-rule="evenodd"/><path fill="#980000" d="m43.562992 174.01312l12.70866 -12.708664l12.708664 12.708664l-12.708664 12.708664z" fill-rule="evenodd"/><path stroke="#000000" stroke-width="1.0" stroke-linejoin="round" stroke-linecap="butt" d="m43.562992 174.01312l12.70866 -12.708664l12.708664 12.708664l-12.708664 12.708664z" fill-rule="evenodd"/><path fill="#0000ff" d="m74.845146 132.5105l0 0c0 -5.0879745 4.1246185 -9.212601 9.212593 -9.212601l0 0c2.4433365 0 4.786598 0.9706116 6.5142975 2.6983109c1.7276917 1.7276993 2.6983032 4.070961 2.6983032 6.51429l0 0c0 5.087982 -4.1246185 9.212601 -9.212601 9.212601l0 0c-5.0879745 0 -9.212593 -4.1246185 -9.212593 -9.212601z" fill-rule="evenodd"/><path stroke="#000000" stroke-width="1.0" stroke-linejoin="round" stroke-linecap="butt" d="m74.845146 132.5105l0 0c0 -5.0879745 4.1246185 -9.212601 9.212593 -9.212601l0 0c2.4433365 0 4.786598 0.9706116 6.5142975 2.6983109c1.7276917 1.7276993 2.6983032 4.070961 2.6983032 6.51429l0 0c0 5.087982 -4.1246185 9.212601 -9.212601 9.212601l0 0c-5.0879745 0 -9.212593 -4.1246185 -9.212593 -9.212601z" fill-rule="evenodd"/><path fill="#0000ff" d="m20.469816 132.40945l0 0c0 -5.087982 4.1246204 -9.212601 9.212599 -9.212601l0 0c2.4433327 0 4.7865944 0.97060394 6.51429 2.6983032c1.7276993 1.7276993 2.698307 4.0709534 2.698307 6.5142975l0 0c0 5.087967 -4.1246185 9.212585 -9.212597 9.212585l0 0c-5.0879784 0 -9.212599 -4.1246185 -9.212599 -9.212585z" fill-rule="evenodd"/><path stroke="#000000" stroke-width="1.0" stroke-linejoin="round" stroke-linecap="butt" d="m20.469816 132.40945l0 0c0 -5.087982 4.1246204 -9.212601 9.212599 -9.212601l0 0c2.4433327 0 4.7865944 0.97060394 6.51429 2.6983032c1.7276993 1.7276993 2.698307 4.0709534 2.698307 6.5142975l0 0c0 5.087967 -4.1246185 9.212585 -9.212597 9.212585l0 0c-5.0879784 0 -9.212599 -4.1246185 -9.212599 -9.212585z" fill-rule="evenodd"/><path fill="#00ff00" d="m49.010498 138.17323l7.8582687 -13.6063l7.8582687 13.6063z" fill-rule="evenodd"/><path stroke="#000000" stroke-width="1.0" stroke-linejoin="round" stroke-linecap="butt" d="m49.010498 138.17323l7.8582687 -13.6063l7.8582687 13.6063z" fill-rule="evenodd"/><path fill="#000000" fill-opacity="0.0" d="m82.91338 213.89764l20.425201 -40.850388l53.448814 0l20.425201 40.850388l-20.425201 40.850372l-53.448814 0z" fill-rule="evenodd"/><path stroke="#000000" stroke-width="1.0" stroke-linejoin="round" stroke-linecap="butt" d="m82.91338 213.89764l20.425201 -40.850388l53.448814 0l20.425201 40.850388l-20.425201 40.850372l-53.448814 0z" fill-rule="evenodd"/><path fill="#000000" fill-opacity="0.0" d="m103.338585 173.04726l53.448814 81.70079" fill-rule="evenodd"/><path stroke="#000000" stroke-width="1.0" stroke-linejoin="round" stroke-linecap="butt" d="m103.338585 173.04726l53.448814 81.70079" fill-rule="evenodd"/><path fill="#000000" fill-opacity="0.0" d="m103.338585 254.74802l53.448814 -81.70079" fill-rule="evenodd"/><path stroke="#000000" stroke-width="1.0" stroke-linejoin="round" stroke-linecap="butt" d="m103.338585 254.74802l53.448814 -81.70079" fill-rule="evenodd"/><path fill="#000000" fill-opacity="0.0" d="m82.91338 213.89764l94.29922 0" fill-rule="evenodd"/><path stroke="#000000" stroke-width="1.0" stroke-linejoin="round" stroke-linecap="butt" d="m82.91338 213.89764l94.29922 0" fill-rule="evenodd"/><path fill="#0000ff" d="m92.29921 172.6063l0 0c0 -5.087967 4.124626 -9.212585 9.212601 -9.212585l0 0c2.4433365 0 4.7865906 0.9705963 6.51429 2.6983032c1.7276993 1.7276917 2.6983109 4.0709534 2.6983109 6.514282l0 0c0 5.087982 -4.124626 9.212601 -9.212601 9.212601l0 0c-5.0879745 0 -9.212601 -4.1246185 -9.212601 -9.212601z" fill-rule="evenodd"/><path stroke="#000000" stroke-width="1.0" stroke-linejoin="round" stroke-linecap="butt" d="m92.29921 172.6063l0 0c0 -5.087967 4.124626 -9.212585 9.212601 -9.212585l0 0c2.4433365 0 4.7865906 0.9705963 6.51429 2.6983032c1.7276993 1.7276917 2.6983109 4.0709534 2.6983109 6.514282l0 0c0 5.087982 -4.124626 9.212601 -9.212601 9.212601l0 0c-5.0879745 0 -9.212601 -4.1246185 -9.212601 -9.212601z" fill-rule="evenodd"/><path fill="#cfe2f3" d="m73.874016 213.4567l0 0c0 -5.087982 4.1246185 -9.212601 9.212601 -9.212601l0 0c2.4433289 0 4.7865906 0.9706116 6.51429 2.6983032c1.7276993 1.7277069 2.6983032 4.0709686 2.6983032 6.5142975l0 0c0 5.087982 -4.1246185 9.212601 -9.212593 9.212601l0 0c-5.087982 0 -9.212601 -4.1246185 -9.212601 -9.212601z" fill-rule="evenodd"/><path stroke="#000000" stroke-width="1.0" stroke-linejoin="round" stroke-linecap="butt" d="m73.874016 213.4567l0 0c0 -5.087982 4.1246185 -9.212601 9.212601 -9.212601l0 0c2.4433289 0 4.7865906 0.9706116 6.51429 2.6983032c1.7276993 1.7277069 2.6983032 4.0709686 2.6983032 6.5142975l0 0c0 5.087982 -4.1246185 9.212601 -9.212593 9.212601l0 0c-5.087982 0 -9.212601 -4.1246185 -9.212601 -9.212601z" fill-rule="evenodd"/><path fill="#cfe2f3" d="m95.25984 254.74803l0 0c0 -5.087982 4.1246185 -9.212601 9.212601 -9.212601l0 0c2.4433289 0 4.7865906 0.9706116 6.51429 2.6983032c1.7276993 1.7277069 2.6983032 4.0709686 2.6983032 6.5142975l0 0c0 5.087967 -4.1246185 9.212601 -9.212593 9.212601l0 0c-5.087982 0 -9.212601 -4.124634 -9.212601 -9.212601z" fill-rule="evenodd"/><path stroke="#000000" stroke-width="1.0" stroke-linejoin="round" stroke-linecap="butt" d="m95.25984 254.74803l0 0c0 -5.087982 4.1246185 -9.212601 9.212601 -9.212601l0 0c2.4433289 0 4.7865906 0.9706116 6.51429 2.6983032c1.7276993 1.7277069 2.6983032 4.0709686 2.6983032 6.5142975l0 0c0 5.087967 -4.1246185 9.212601 -9.212593 9.212601l0 0c-5.087982 0 -9.212601 -4.124634 -9.212601 -9.212601z" fill-rule="evenodd"/><path fill="#cfe2f3" d="m147.81102 254.82152l0 0c0 -5.087967 4.1246185 -9.212601 9.212601 -9.212601l0 0c2.4433289 0 4.7865906 0.9706116 6.5142975 2.6983185c1.7276917 1.7276917 2.6983032 4.0709534 2.6983032 6.514282l0 0c0 5.087967 -4.1246185 9.212601 -9.212601 9.212601l0 0c-5.087982 0 -9.212601 -4.124634 -9.212601 -9.212601z" fill-rule="evenodd"/><path stroke="#000000" stroke-width="1.0" stroke-linejoin="round" stroke-linecap="butt" d="m147.81102 254.82152l0 0c0 -5.087967 4.1246185 -9.212601 9.212601 -9.212601l0 0c2.4433289 0 4.7865906 0.9706116 6.5142975 2.6983185c1.7276917 1.7276917 2.6983032 4.0709534 2.6983032 6.514282l0 0c0 5.087967 -4.1246185 9.212601 -9.212601 9.212601l0 0c-5.087982 0 -9.212601 -4.124634 -9.212601 -9.212601z" fill-rule="evenodd"/><path fill="#0000ff" d="m147.80971 255.11548l0 0c0 -5.087967 4.1246185 -9.212585 9.212601 -9.212585l0 0c2.4433289 0 4.7865906 0.9706116 6.5142975 2.6983032c1.7276917 1.7276917 2.6983032 4.0709534 2.6983032 6.514282l0 0c0 5.087982 -4.1246185 9.212616 -9.212601 9.212616l0 0c-5.087982 0 -9.212601 -4.124634 -9.212601 -9.212616z" fill-rule="evenodd"/><path stroke="#000000" stroke-width="1.0" stroke-linejoin="round" stroke-linecap="butt" d="m147.80971 255.11548l0 0c0 -5.087967 4.1246185 -9.212585 9.212601 -9.212585l0 0c2.4433289 0 4.7865906 0.9706116 6.5142975 2.6983032c1.7276917 1.7276917 2.6983032 4.0709534 2.6983032 6.514282l0 0c0 5.087982 -4.1246185 9.212616 -9.212601 9.212616l0 0c-5.087982 0 -9.212601 -4.124634 -9.212601 -9.212616z" fill-rule="evenodd"/><path fill="#0000ff" d="m95.25984 254.9685l0 0c0 -5.087982 4.1246185 -9.212601 9.212601 -9.212601l0 0c2.4433289 0 4.7865906 0.9706116 6.51429 2.6983032c1.7276993 1.7277069 2.6983032 4.0709686 2.6983032 6.5142975l0 0c0 5.087982 -4.1246185 9.212585 -9.212593 9.212585l0 0c-5.087982 0 -9.212601 -4.1246033 -9.212601 -9.212585z" fill-rule="evenodd"/><path stroke="#000000" stroke-width="1.0" stroke-linejoin="round" stroke-linecap="butt" d="m95.25984 254.9685l0 0c0 -5.087982 4.1246185 -9.212601 9.212601 -9.212601l0 0c2.4433289 0 4.7865906 0.9706116 6.51429 2.6983032c1.7276993 1.7277069 2.6983032 4.0709686 2.6983032 6.5142975l0 0c0 5.087982 -4.1246185 9.212585 -9.212593 9.212585l0 0c-5.087982 0 -9.212601 -4.1246033 -9.212601 -9.212585z" fill-rule="evenodd"/><path fill="#0000ff" d="m73.75853 213.4567l0 0c0 -5.087982 4.1246185 -9.212601 9.212601 -9.212601l0 0c2.4433289 0 4.7865906 0.9706116 6.51429 2.6983032c1.7276993 1.7277069 2.6983032 4.0709686 2.6983032 6.5142975l0 0c0 5.087982 -4.1246185 9.212601 -9.212593 9.212601l0 0c-5.087982 0 -9.212601 -4.1246185 -9.212601 -9.212601z" fill-rule="evenodd"/><path stroke="#000000" stroke-width="1.0" stroke-linejoin="round" stroke-linecap="butt" d="m73.75853 213.4567l0 0c0 -5.087982 4.1246185 -9.212601 9.212601 -9.212601l0 0c2.4433289 0 4.7865906 0.9706116 6.51429 2.6983032c1.7276993 1.7277069 2.6983032 4.0709686 2.6983032 6.5142975l0 0c0 5.087982 -4.1246185 9.212601 -9.212593 9.212601l0 0c-5.087982 0 -9.212601 -4.1246185 -9.212601 -9.212601z" fill-rule="evenodd"/><path fill="#00ff00" d="m84.73622 199.83464l7.8582687 -13.606293l7.8582687 13.606293z" fill-rule="evenodd"/><path stroke="#000000" stroke-width="1.0" stroke-linejoin="round" stroke-linecap="butt" d="m84.73622 199.83464l7.8582687 -13.606293l7.8582687 13.606293z" fill-rule="evenodd"/><path fill="#00ff00" d="m121.261154 177.0l7.858261 -13.606293l7.8582764 13.606293z" fill-rule="evenodd"/><path stroke="#000000" stroke-width="1.0" stroke-linejoin="round" stroke-linecap="butt" d="m121.261154 177.0l7.858261 -13.606293l7.8582764 13.606293z" fill-rule="evenodd"/><path fill="#00ff00" d="m159.08005 241.6588l7.8582764 -13.606308l7.858261 13.606308z" fill-rule="evenodd"/><path stroke="#000000" stroke-width="1.0" stroke-linejoin="round" stroke-linecap="butt" d="m159.08005 241.6588l7.8582764 -13.606308l7.858261 13.606308z" fill-rule="evenodd"/><path fill="#00ff00" d="m122.88845 261.77167l7.8582687 -13.606308l7.858261 13.606308z" fill-rule="evenodd"/><path stroke="#000000" stroke-width="1.0" stroke-linejoin="round" stroke-linecap="butt" d="m122.88845 261.77167l7.8582687 -13.606308l7.858261 13.606308z" fill-rule="evenodd"/><path fill="#00ff00" d="m85.03018 241.01575l7.8582687 -13.606293l7.8582687 13.606293z" fill-rule="evenodd"/><path stroke="#000000" stroke-width="1.0" stroke-linejoin="round" stroke-linecap="butt" d="m85.03018 241.01575l7.8582687 -13.606293l7.8582687 13.606293z" fill-rule="evenodd"/><path fill="#980000" d="m117.20604 214.04462l12.708664 -12.708664l12.708649 12.708664l-12.708649 12.708664z" fill-rule="evenodd"/><path stroke="#000000" stroke-width="1.0" stroke-linejoin="round" stroke-linecap="butt" d="m117.20604 214.04462l12.708664 -12.708664l12.708649 12.708664l-12.708649 12.708664z" fill-rule="evenodd"/><path fill="#000000" fill-opacity="0.0" d="m82.91338 51.194225l20.425201 -40.850372l53.448814 0l20.425201 40.850372l-20.425201 40.850376l-53.448814 0z" fill-rule="evenodd"/><path stroke="#000000" stroke-width="1.0" stroke-linejoin="round" stroke-linecap="butt" d="m82.91338 51.194225l20.425201 -40.850372l53.448814 0l20.425201 40.850372l-20.425201 40.850376l-53.448814 0z" fill-rule="evenodd"/><path fill="#000000" fill-opacity="0.0" d="m103.338585 10.343851l53.448814 81.70079" fill-rule="evenodd"/><path stroke="#000000" stroke-width="1.0" stroke-linejoin="round" stroke-linecap="butt" d="m103.338585 10.343851l53.448814 81.70079" fill-rule="evenodd"/><path fill="#000000" fill-opacity="0.0" d="m103.338585 92.0446l53.448814 -81.70079" fill-rule="evenodd"/><path stroke="#000000" stroke-width="1.0" stroke-linejoin="round" stroke-linecap="butt" d="m103.338585 92.0446l53.448814 -81.70079" fill-rule="evenodd"/><path fill="#000000" fill-opacity="0.0" d="m82.91338 51.194225l94.29922 0" fill-rule="evenodd"/><path stroke="#000000" stroke-width="1.0" stroke-linejoin="round" stroke-linecap="butt" d="m82.91338 51.194225l94.29922 0" fill-rule="evenodd"/><path fill="#0000ff" d="m92.29921 9.902887l0 0c0 -5.087978 4.124626 -9.212599 9.212601 -9.212599l0 0c2.4433365 0 4.7865906 0.9706102 6.51429 2.6983075c1.7276993 1.7276971 2.6983109 4.070958 2.6983109 6.514291l0 0c0 5.0879774 -4.124626 9.212599 -9.212601 9.212599l0 0c-5.0879745 0 -9.212601 -4.1246214 -9.212601 -9.212599z" fill-rule="evenodd"/><path stroke="#000000" stroke-width="1.0" stroke-linejoin="round" stroke-linecap="butt" d="m92.29921 9.902887l0 0c0 -5.087978 4.124626 -9.212599 9.212601 -9.212599l0 0c2.4433365 0 4.7865906 0.9706102 6.51429 2.6983075c1.7276993 1.7276971 2.6983109 4.070958 2.6983109 6.514291l0 0c0 5.0879774 -4.124626 9.212599 -9.212601 9.212599l0 0c-5.0879745 0 -9.212601 -4.1246214 -9.212601 -9.212599z" fill-rule="evenodd"/><path fill="#cfe2f3" d="m73.874016 50.75328l0 0c0 -5.0879784 4.1246185 -9.212597 9.212601 -9.212597l0 0c2.4433289 0 4.7865906 0.97060776 6.51429 2.698307c1.7276993 1.7276955 2.6983032 4.070957 2.6983032 6.51429l0 0c0 5.0879784 -4.1246185 9.212597 -9.212593 9.212597l0 0c-5.087982 0 -9.212601 -4.1246185 -9.212601 -9.212597z" fill-rule="evenodd"/><path stroke="#000000" stroke-width="1.0" stroke-linejoin="round" stroke-linecap="butt" d="m73.874016 50.75328l0 0c0 -5.0879784 4.1246185 -9.212597 9.212601 -9.212597l0 0c2.4433289 0 4.7865906 0.97060776 6.51429 2.698307c1.7276993 1.7276955 2.6983032 4.070957 2.6983032 6.51429l0 0c0 5.0879784 -4.1246185 9.212597 -9.212593 9.212597l0 0c-5.087982 0 -9.212601 -4.1246185 -9.212601 -9.212597z" fill-rule="evenodd"/><path fill="#cfe2f3" d="m95.25984 92.04462l0 0c0 -5.0879745 4.1246185 -9.212593 9.212601 -9.212593l0 0c2.4433289 0 4.7865906 0.97060394 6.51429 2.6983032c1.7276993 1.7276993 2.6983032 4.070961 2.6983032 6.51429l0 0c0 5.087982 -4.1246185 9.212601 -9.212593 9.212601l0 0c-5.087982 0 -9.212601 -4.1246185 -9.212601 -9.212601z" fill-rule="evenodd"/><path stroke="#000000" stroke-width="1.0" stroke-linejoin="round" stroke-linecap="butt" d="m95.25984 92.04462l0 0c0 -5.0879745 4.1246185 -9.212593 9.212601 -9.212593l0 0c2.4433289 0 4.7865906 0.97060394 6.51429 2.6983032c1.7276993 1.7276993 2.6983032 4.070961 2.6983032 6.51429l0 0c0 5.087982 -4.1246185 9.212601 -9.212593 9.212601l0 0c-5.087982 0 -9.212601 -4.1246185 -9.212601 -9.212601z" fill-rule="evenodd"/><path fill="#cfe2f3" d="m147.51575 10.711287l0 0c0 -5.087978 4.1246185 -9.212599 9.212601 -9.212599l0 0c2.4433289 0 4.7865906 0.97061026 6.514282 2.6983075c1.7277069 1.7276974 2.6983185 4.0709577 2.6983185 6.5142913l0 0c0 5.0879774 -4.1246185 9.212599 -9.212601 9.212599l0 0c-5.087982 0 -9.212601 -4.1246214 -9.212601 -9.212599z" fill-rule="evenodd"/><path stroke="#000000" stroke-width="1.0" stroke-linejoin="round" stroke-linecap="butt" d="m147.51575 10.711287l0 0c0 -5.087978 4.1246185 -9.212599 9.212601 -9.212599l0 0c2.4433289 0 4.7865906 0.97061026 6.514282 2.6983075c1.7277069 1.7276974 2.6983185 4.0709577 2.6983185 6.5142913l0 0c0 5.0879774 -4.1246185 9.212599 -9.212601 9.212599l0 0c-5.087982 0 -9.212601 -4.1246214 -9.212601 -9.212599z" fill-rule="evenodd"/><path fill="#0000ff" d="m147.51575 10.711287l0 0c0 -5.087978 4.1246185 -9.212599 9.212601 -9.212599l0 0c2.4433289 0 4.7865906 0.97061026 6.514282 2.6983075c1.7277069 1.7276974 2.6983185 4.0709577 2.6983185 6.5142913l0 0c0 5.0879774 -4.1246185 9.212599 -9.212601 9.212599l0 0c-5.087982 0 -9.212601 -4.1246214 -9.212601 -9.212599z" fill-rule="evenodd"/><path stroke="#000000" stroke-width="1.0" stroke-linejoin="round" stroke-linecap="butt" d="m147.51575 10.711287l0 0c0 -5.087978 4.1246185 -9.212599 9.212601 -9.212599l0 0c2.4433289 0 4.7865906 0.97061026 6.514282 2.6983075c1.7277069 1.7276974 2.6983185 4.0709577 2.6983185 6.5142913l0 0c0 5.0879774 -4.1246185 9.212599 -9.212601 9.212599l0 0c-5.087982 0 -9.212601 -4.1246214 -9.212601 -9.212599z" fill-rule="evenodd"/><path fill="#0000ff" d="m95.25984 92.26509l0 0c0 -5.0879745 4.1246185 -9.212601 9.212601 -9.212601l0 0c2.4433289 0 4.7865906 0.9706116 6.51429 2.6983109c1.7276993 1.7276993 2.6983032 4.070961 2.6983032 6.51429l0 0c0 5.087982 -4.1246185 9.212601 -9.212593 9.212601l0 0c-5.087982 0 -9.212601 -4.1246185 -9.212601 -9.212601z" fill-rule="evenodd"/><path stroke="#000000" stroke-width="1.0" stroke-linejoin="round" stroke-linecap="butt" d="m95.25984 92.26509l0 0c0 -5.0879745 4.1246185 -9.212601 9.212601 -9.212601l0 0c2.4433289 0 4.7865906 0.9706116 6.51429 2.6983109c1.7276993 1.7276993 2.6983032 4.070961 2.6983032 6.51429l0 0c0 5.087982 -4.1246185 9.212601 -9.212593 9.212601l0 0c-5.087982 0 -9.212601 -4.1246185 -9.212601 -9.212601z" fill-rule="evenodd"/><path fill="#0000ff" d="m73.75853 50.75328l0 0c0 -5.0879784 4.1246185 -9.212597 9.212601 -9.212597l0 0c2.4433289 0 4.7865906 0.97060776 6.51429 2.698307c1.7276993 1.7276955 2.6983032 4.070957 2.6983032 6.51429l0 0c0 5.0879784 -4.1246185 9.212597 -9.212593 9.212597l0 0c-5.087982 0 -9.212601 -4.1246185 -9.212601 -9.212597z" fill-rule="evenodd"/><path stroke="#000000" stroke-width="1.0" stroke-linejoin="round" stroke-linecap="butt" d="m73.75853 50.75328l0 0c0 -5.0879784 4.1246185 -9.212597 9.212601 -9.212597l0 0c2.4433289 0 4.7865906 0.97060776 6.51429 2.698307c1.7276993 1.7276955 2.6983032 4.070957 2.6983032 6.51429l0 0c0 5.0879784 -4.1246185 9.212597 -9.212593 9.212597l0 0c-5.087982 0 -9.212601 -4.1246185 -9.212601 -9.212597z" fill-rule="evenodd"/><path fill="#00ff00" d="m84.73622 37.131233l7.8582687 -13.606298l7.8582687 13.606298z" fill-rule="evenodd"/><path stroke="#000000" stroke-width="1.0" stroke-linejoin="round" stroke-linecap="butt" d="m84.73622 37.131233l7.8582687 -13.606298l7.8582687 13.606298z" fill-rule="evenodd"/><path fill="#00ff00" d="m121.261154 14.296588l7.858261 -13.606299l7.8582764 13.606299z" fill-rule="evenodd"/><path stroke="#000000" stroke-width="1.0" stroke-linejoin="round" stroke-linecap="butt" d="m121.261154 14.296588l7.858261 -13.606299l7.8582764 13.606299z" fill-rule="evenodd"/><path fill="#00ff00" d="m159.37665 37.480316l7.858261 -13.6063l7.858261 13.6063z" fill-rule="evenodd"/><path stroke="#000000" stroke-width="1.0" stroke-linejoin="round" stroke-linecap="butt" d="m159.37665 37.480316l7.858261 -13.6063l7.858261 13.6063z" fill-rule="evenodd"/><path fill="#00ff00" d="m122.88845 99.068245l7.8582687 -13.6063l7.858261 13.6063z" fill-rule="evenodd"/><path stroke="#000000" stroke-width="1.0" stroke-linejoin="round" stroke-linecap="butt" d="m122.88845 99.068245l7.8582687 -13.6063l7.858261 13.6063z" fill-rule="evenodd"/><path fill="#00ff00" d="m85.03018 78.31233l7.8582687 -13.606293l7.8582687 13.606293z" fill-rule="evenodd"/><path stroke="#000000" stroke-width="1.0" stroke-linejoin="round" stroke-linecap="butt" d="m85.03018 78.31233l7.8582687 -13.606293l7.8582687 13.606293z" fill-rule="evenodd"/><path fill="#980000" d="m117.20604 51.341206l12.708664 -12.70866l12.708649 12.70866l-12.708649 12.70866z" fill-rule="evenodd"/><path stroke="#000000" stroke-width="1.0" stroke-linejoin="round" stroke-linecap="butt" d="m117.20604 51.341206l12.708664 -12.70866l12.708649 12.70866l-12.708649 12.70866z" fill-rule="evenodd"/><path fill="#000000" fill-opacity="0.0" d="m156.96457 90.72179l20.425201 -40.850376l53.448807 0l20.425201 40.850376l-20.425201 40.850372l-53.448807 0z" fill-rule="evenodd"/><path stroke="#000000" stroke-width="1.0" stroke-linejoin="round" stroke-linecap="butt" d="m156.96457 90.72179l20.425201 -40.850376l53.448807 0l20.425201 40.850376l-20.425201 40.850372l-53.448807 0z" fill-rule="evenodd"/><path fill="#000000" fill-opacity="0.0" d="m177.38977 49.87141l53.448807 81.70079" fill-rule="evenodd"/><path stroke="#000000" stroke-width="1.0" stroke-linejoin="round" stroke-linecap="butt" d="m177.38977 49.87141l53.448807 81.70079" fill-rule="evenodd"/><path fill="#000000" fill-opacity="0.0" d="m177.38977 131.57216l53.448807 -81.70079" fill-rule="evenodd"/><path stroke="#000000" stroke-width="1.0" stroke-linejoin="round" stroke-linecap="butt" d="m177.38977 131.57216l53.448807 -81.70079" fill-rule="evenodd"/><path fill="#000000" fill-opacity="0.0" d="m156.96457 90.72179l94.29921 0" fill-rule="evenodd"/><path stroke="#000000" stroke-width="1.0" stroke-linejoin="round" stroke-linecap="butt" d="m156.96457 90.72179l94.29921 0" fill-rule="evenodd"/><path fill="#0000ff" d="m166.35039 49.430447l0 0c0 -5.0879784 4.124634 -9.212601 9.212601 -9.212601l0 0c2.443344 0 4.7865906 0.9706116 6.5142975 2.6983109c1.7276917 1.7276955 2.6983032 4.070957 2.6983032 6.51429l0 0c0 5.0879784 -4.1246185 9.212597 -9.212601 9.212597l0 0c-5.087967 0 -9.212601 -4.1246185 -9.212601 -9.212597z" fill-rule="evenodd"/><path stroke="#000000" stroke-width="1.0" stroke-linejoin="round" stroke-linecap="butt" d="m166.35039 49.430447l0 0c0 -5.0879784 4.124634 -9.212601 9.212601 -9.212601l0 0c2.443344 0 4.7865906 0.9706116 6.5142975 2.6983109c1.7276917 1.7276955 2.6983032 4.070957 2.6983032 6.51429l0 0c0 5.0879784 -4.1246185 9.212597 -9.212601 9.212597l0 0c-5.087967 0 -9.212601 -4.1246185 -9.212601 -9.212597z" fill-rule="evenodd"/><path fill="#cfe2f3" d="m147.9252 90.28084l0 0c0 -5.0879745 4.1246185 -9.212593 9.212601 -9.212593l0 0c2.4433289 0 4.7865906 0.97060394 6.514282 2.6983032c1.7276917 1.7276993 2.6983032 4.070961 2.6983032 6.51429l0 0c0 5.087982 -4.1246185 9.212601 -9.212585 9.212601l0 0c-5.087982 0 -9.212601 -4.1246185 -9.212601 -9.212601z" fill-rule="evenodd"/><path stroke="#000000" stroke-width="1.0" stroke-linejoin="round" stroke-linecap="butt" d="m147.9252 90.28084l0 0c0 -5.0879745 4.1246185 -9.212593 9.212601 -9.212593l0 0c2.4433289 0 4.7865906 0.97060394 6.514282 2.6983032c1.7276917 1.7276993 2.6983032 4.070961 2.6983032 6.51429l0 0c0 5.087982 -4.1246185 9.212601 -9.212585 9.212601l0 0c-5.087982 0 -9.212601 -4.1246185 -9.212601 -9.212601z" fill-rule="evenodd"/><path fill="#cfe2f3" d="m242.2874 90.50131l0 0c0 -5.0879745 4.1246185 -9.212601 9.212601 -9.212601l0 0c2.4433289 0 4.7865906 0.9706116 6.514282 2.6983109c1.7276917 1.7276993 2.6983032 4.0709534 2.6983032 6.51429l0 0c0 5.0879745 -4.1246033 9.212601 -9.212585 9.212601l0 0c-5.087982 0 -9.212601 -4.124626 -9.212601 -9.212601z" fill-rule="evenodd"/><path stroke="#000000" stroke-width="1.0" stroke-linejoin="round" stroke-linecap="butt" d="m242.2874 90.50131l0 0c0 -5.0879745 4.1246185 -9.212601 9.212601 -9.212601l0 0c2.4433289 0 4.7865906 0.9706116 6.514282 2.6983109c1.7276917 1.7276993 2.6983032 4.0709534 2.6983032 6.51429l0 0c0 5.0879745 -4.1246033 9.212601 -9.212585 9.212601l0 0c-5.087982 0 -9.212601 -4.124626 -9.212601 -9.212601z" fill-rule="evenodd"/><path fill="#cfe2f3" d="m221.56693 50.238846l0 0c0 -5.0879784 4.1246185 -9.212601 9.212601 -9.212601l0 0c2.4433289 0 4.7865906 0.9706116 6.5142975 2.6983109c1.7276917 1.7276955 2.6983032 4.070957 2.6983032 6.51429l0 0c0 5.0879784 -4.1246185 9.212597 -9.212601 9.212597l0 0c-5.087982 0 -9.212601 -4.1246185 -9.212601 -9.212597z" fill-rule="evenodd"/><path stroke="#000000" stroke-width="1.0" stroke-linejoin="round" stroke-linecap="butt" d="m221.56693 50.238846l0 0c0 -5.0879784 4.1246185 -9.212601 9.212601 -9.212601l0 0c2.4433289 0 4.7865906 0.9706116 6.5142975 2.6983109c1.7276917 1.7276955 2.6983032 4.070957 2.6983032 6.51429l0 0c0 5.0879784 -4.1246185 9.212597 -9.212601 9.212597l0 0c-5.087982 0 -9.212601 -4.1246185 -9.212601 -9.212597z" fill-rule="evenodd"/><path fill="#0000ff" d="m221.56693 50.238846l0 0c0 -5.0879784 4.1246185 -9.212601 9.212601 -9.212601l0 0c2.4433289 0 4.7865906 0.9706116 6.5142975 2.6983109c1.7276917 1.7276955 2.6983032 4.070957 2.6983032 6.51429l0 0c0 5.0879784 -4.1246185 9.212597 -9.212601 9.212597l0 0c-5.087982 0 -9.212601 -4.1246185 -9.212601 -9.212597z" fill-rule="evenodd"/><path stroke="#000000" stroke-width="1.0" stroke-linejoin="round" stroke-linecap="butt" d="m221.56693 50.238846l0 0c0 -5.0879784 4.1246185 -9.212601 9.212601 -9.212601l0 0c2.4433289 0 4.7865906 0.9706116 6.5142975 2.6983109c1.7276917 1.7276955 2.6983032 4.070957 2.6983032 6.51429l0 0c0 5.0879784 -4.1246185 9.212597 -9.212601 9.212597l0 0c-5.087982 0 -9.212601 -4.1246185 -9.212601 -9.212597z" fill-rule="evenodd"/><path fill="#0000ff" d="m241.99213 90.50131l0 0c0 -5.0879745 4.1246185 -9.212601 9.212601 -9.212601l0 0c2.4433289 0 4.7865906 0.9706116 6.5142975 2.6983109c1.7276917 1.7276993 2.6983032 4.0709534 2.6983032 6.51429l0 0c0 5.0879745 -4.124634 9.212601 -9.212601 9.212601l0 0c-5.087982 0 -9.212601 -4.124626 -9.212601 -9.212601z" fill-rule="evenodd"/><path stroke="#000000" stroke-width="1.0" stroke-linejoin="round" stroke-linecap="butt" d="m241.99213 90.50131l0 0c0 -5.0879745 4.1246185 -9.212601 9.212601 -9.212601l0 0c2.4433289 0 4.7865906 0.9706116 6.5142975 2.6983109c1.7276917 1.7276993 2.6983032 4.0709534 2.6983032 6.51429l0 0c0 5.0879745 -4.124634 9.212601 -9.212601 9.212601l0 0c-5.087982 0 -9.212601 -4.124626 -9.212601 -9.212601z" fill-rule="evenodd"/><path fill="#0000ff" d="m147.80971 90.28084l0 0c0 -5.0879745 4.1246185 -9.212593 9.212601 -9.212593l0 0c2.4433289 0 4.7865906 0.97060394 6.5142975 2.6983032c1.7276917 1.7276993 2.6983032 4.070961 2.6983032 6.51429l0 0c0 5.087982 -4.1246185 9.212601 -9.212601 9.212601l0 0c-5.087982 0 -9.212601 -4.1246185 -9.212601 -9.212601z" fill-rule="evenodd"/><path stroke="#000000" stroke-width="1.0" stroke-linejoin="round" stroke-linecap="butt" d="m147.80971 90.28084l0 0c0 -5.0879745 4.1246185 -9.212593 9.212601 -9.212593l0 0c2.4433289 0 4.7865906 0.97060394 6.5142975 2.6983032c1.7276917 1.7276993 2.6983032 4.070961 2.6983032 6.51429l0 0c0 5.087982 -4.1246185 9.212601 -9.212601 9.212601l0 0c-5.087982 0 -9.212601 -4.1246185 -9.212601 -9.212601z" fill-rule="evenodd"/><path fill="#0000ff" d="m241.58267 90.86877l0 0c0 -5.0879745 4.1246185 -9.212601 9.212601 -9.212601l0 0c2.4433289 0 4.7865906 0.9706116 6.5142975 2.6983109c1.7276917 1.7276993 2.6983032 4.0709534 2.6983032 6.51429l0 0c0 5.0879745 -4.1246185 9.212601 -9.212601 9.212601l0 0c-5.087982 0 -9.212601 -4.124626 -9.212601 -9.212601z" fill-rule="evenodd"/><path stroke="#000000" stroke-width="1.0" stroke-linejoin="round" stroke-linecap="butt" d="m241.58267 90.86877l0 0c0 -5.0879745 4.1246185 -9.212601 9.212601 -9.212601l0 0c2.4433289 0 4.7865906 0.9706116 6.5142975 2.6983109c1.7276917 1.7276993 2.6983032 4.0709534 2.6983032 6.51429l0 0c0 5.0879745 -4.1246185 9.212601 -9.212601 9.212601l0 0c-5.087982 0 -9.212601 -4.124626 -9.212601 -9.212601z" fill-rule="evenodd"/><path fill="#00ff00" d="m158.7874 76.65879l7.8582764 -13.606297l7.858261 13.606297z" fill-rule="evenodd"/><path stroke="#000000" stroke-width="1.0" stroke-linejoin="round" stroke-linecap="butt" d="m158.7874 76.65879l7.8582764 -13.606297l7.858261 13.606297z" fill-rule="evenodd"/><path fill="#00ff00" d="m195.31233 53.824146l7.8582764 -13.6063l7.858261 13.6063z" fill-rule="evenodd"/><path stroke="#000000" stroke-width="1.0" stroke-linejoin="round" stroke-linecap="butt" d="m195.31233 53.824146l7.8582764 -13.6063l7.858261 13.6063z" fill-rule="evenodd"/><path fill="#00ff00" d="m233.42783 77.00787l7.858261 -13.6063l7.8582764 13.6063z" fill-rule="evenodd"/><path stroke="#000000" stroke-width="1.0" stroke-linejoin="round" stroke-linecap="butt" d="m233.42783 77.00787l7.858261 -13.6063l7.8582764 13.6063z" fill-rule="evenodd"/><path fill="#00ff00" d="m233.13124 118.48294l7.858261 -13.6063l7.858261 13.6063z" fill-rule="evenodd"/><path stroke="#000000" stroke-width="1.0" stroke-linejoin="round" stroke-linecap="butt" d="m233.13124 118.48294l7.858261 -13.6063l7.858261 13.6063z" fill-rule="evenodd"/><path fill="#00ff00" d="m159.08136 117.8399l7.8582764 -13.6063l7.858261 13.6063z" fill-rule="evenodd"/><path stroke="#000000" stroke-width="1.0" stroke-linejoin="round" stroke-linecap="butt" d="m159.08136 117.8399l7.8582764 -13.6063l7.858261 13.6063z" fill-rule="evenodd"/><path fill="#980000" d="m191.25722 90.86877l12.708664 -12.708664l12.708664 12.708664l-12.708664 12.708664z" fill-rule="evenodd"/><path stroke="#000000" stroke-width="1.0" stroke-linejoin="round" stroke-linecap="butt" d="m191.25722 90.86877l12.708664 -12.708664l12.708664 12.708664l-12.708664 12.708664z" fill-rule="evenodd"/><path fill="#000000" fill-opacity="0.0" d="m156.67192 171.30971l20.425186 -40.850372l53.448822 0l20.425201 40.850372l-20.425201 40.850372l-53.448822 0z" fill-rule="evenodd"/><path stroke="#000000" stroke-width="1.0" stroke-linejoin="round" stroke-linecap="butt" d="m156.67192 171.30971l20.425186 -40.850372l53.448822 0l20.425201 40.850372l-20.425201 40.850372l-53.448822 0z" fill-rule="evenodd"/><path fill="#000000" fill-opacity="0.0" d="m177.0971 130.45934l53.448822 81.70079" fill-rule="evenodd"/><path stroke="#000000" stroke-width="1.0" stroke-linejoin="round" stroke-linecap="butt" d="m177.0971 130.45934l53.448822 81.70079" fill-rule="evenodd"/><path fill="#000000" fill-opacity="0.0" d="m177.0971 212.16008l53.448822 -81.700775" fill-rule="evenodd"/><path stroke="#000000" stroke-width="1.0" stroke-linejoin="round" stroke-linecap="butt" d="m177.0971 212.16008l53.448822 -81.700775" fill-rule="evenodd"/><path fill="#000000" fill-opacity="0.0" d="m156.67192 171.30971l94.29921 0" fill-rule="evenodd"/><path stroke="#000000" stroke-width="1.0" stroke-linejoin="round" stroke-linecap="butt" d="m156.67192 171.30971l94.29921 0" fill-rule="evenodd"/><path fill="#0000ff" d="m166.05774 130.01837l0 0c0 -5.0879745 4.1246185 -9.212601 9.212601 -9.212601l0 0c2.4433289 0 4.7865906 0.9706116 6.5142975 2.6983109c1.7276917 1.7276993 2.6983032 4.070961 2.6983032 6.51429l0 0c0 5.087982 -4.1246185 9.212601 -9.212601 9.212601l0 0c-5.087982 0 -9.212601 -4.1246185 -9.212601 -9.212601z" fill-rule="evenodd"/><path stroke="#000000" stroke-width="1.0" stroke-linejoin="round" stroke-linecap="butt" d="m166.05774 130.01837l0 0c0 -5.0879745 4.1246185 -9.212601 9.212601 -9.212601l0 0c2.4433289 0 4.7865906 0.9706116 6.5142975 2.6983109c1.7276917 1.7276993 2.6983032 4.070961 2.6983032 6.51429l0 0c0 5.087982 -4.1246185 9.212601 -9.212601 9.212601l0 0c-5.087982 0 -9.212601 -4.1246185 -9.212601 -9.212601z" fill-rule="evenodd"/><path fill="#cfe2f3" d="m147.63255 170.86876l0 0c0 -5.087967 4.1246185 -9.212585 9.212585 -9.212585l0 0c2.443344 0 4.786606 0.9706116 6.5142975 2.6983032c1.7276917 1.7276917 2.6983032 4.0709534 2.6983032 6.514282l0 0c0 5.087982 -4.1246185 9.212601 -9.212601 9.212601l0 0c-5.087967 0 -9.212585 -4.1246185 -9.212585 -9.212601z" fill-rule="evenodd"/><path stroke="#000000" stroke-width="1.0" stroke-linejoin="round" stroke-linecap="butt" d="m147.63255 170.86876l0 0c0 -5.087967 4.1246185 -9.212585 9.212585 -9.212585l0 0c2.443344 0 4.786606 0.9706116 6.5142975 2.6983032c1.7276917 1.7276917 2.6983032 4.0709534 2.6983032 6.514282l0 0c0 5.087982 -4.1246185 9.212601 -9.212601 9.212601l0 0c-5.087967 0 -9.212585 -4.1246185 -9.212585 -9.212601z" fill-rule="evenodd"/><path fill="#cfe2f3" d="m169.01837 212.16011l0 0c0 -5.087982 4.1246185 -9.212601 9.212601 -9.212601l0 0c2.4433289 0 4.7865906 0.9706116 6.514282 2.6983032c1.7277069 1.7276917 2.6983185 4.0709534 2.6983185 6.5142975l0 0c0 5.087967 -4.1246185 9.212585 -9.212601 9.212585l0 0c-5.087982 0 -9.212601 -4.1246185 -9.212601 -9.212585z" fill-rule="evenodd"/><path stroke="#000000" stroke-width="1.0" stroke-linejoin="round" stroke-linecap="butt" d="m169.01837 212.16011l0 0c0 -5.087982 4.1246185 -9.212601 9.212601 -9.212601l0 0c2.4433289 0 4.7865906 0.9706116 6.514282 2.6983032c1.7277069 1.7276917 2.6983185 4.0709534 2.6983185 6.5142975l0 0c0 5.087967 -4.1246185 9.212585 -9.212601 9.212585l0 0c-5.087982 0 -9.212601 -4.1246185 -9.212601 -9.212585z" fill-rule="evenodd"/><path fill="#cfe2f3" d="m221.56955 212.2336l0 0c0 -5.087982 4.1246185 -9.212601 9.212601 -9.212601l0 0c2.4433289 0 4.7865906 0.9706116 6.5142975 2.6983032c1.7276917 1.7277069 2.6983032 4.0709686 2.6983032 6.5142975l0 0c0 5.087982 -4.1246185 9.212601 -9.212601 9.212601l0 0c-5.087982 0 -9.212601 -4.1246185 -9.212601 -9.212601z" fill-rule="evenodd"/><path stroke="#000000" stroke-width="1.0" stroke-linejoin="round" stroke-linecap="butt" d="m221.56955 212.2336l0 0c0 -5.087982 4.1246185 -9.212601 9.212601 -9.212601l0 0c2.4433289 0 4.7865906 0.9706116 6.5142975 2.6983032c1.7276917 1.7277069 2.6983032 4.0709686 2.6983032 6.5142975l0 0c0 5.087982 -4.1246185 9.212601 -9.212601 9.212601l0 0c-5.087982 0 -9.212601 -4.1246185 -9.212601 -9.212601z" fill-rule="evenodd"/><path fill="#cfe2f3" d="m241.99475 171.08923l0 0c0 -5.087967 4.1246185 -9.212585 9.212601 -9.212585l0 0c2.4433289 0 4.7865906 0.9705963 6.5142975 2.6983032c1.7276917 1.7276917 2.6983032 4.0709534 2.6983032 6.514282l0 0c0 5.087982 -4.124634 9.212601 -9.212601 9.212601l0 0c-5.087982 0 -9.212601 -4.1246185 -9.212601 -9.212601z" fill-rule="evenodd"/><path stroke="#000000" stroke-width="1.0" stroke-linejoin="round" stroke-linecap="butt" d="m241.99475 171.08923l0 0c0 -5.087967 4.1246185 -9.212585 9.212601 -9.212585l0 0c2.4433289 0 4.7865906 0.9705963 6.5142975 2.6983032c1.7276917 1.7276917 2.6983032 4.0709534 2.6983032 6.514282l0 0c0 5.087982 -4.124634 9.212601 -9.212601 9.212601l0 0c-5.087982 0 -9.212601 -4.1246185 -9.212601 -9.212601z" fill-rule="evenodd"/><path fill="#cfe2f3" d="m221.27428 130.82677l0 0c0 -5.0879745 4.1246185 -9.212593 9.212601 -9.212593l0 0c2.4433289 0 4.7865906 0.9706116 6.5142975 2.6983032c1.7276917 1.7276993 2.6983032 4.070961 2.6983032 6.51429l0 0c0 5.087982 -4.1246185 9.212601 -9.212601 9.212601l0 0c-5.087982 0 -9.212601 -4.1246185 -9.212601 -9.212601z" fill-rule="evenodd"/><path stroke="#000000" stroke-width="1.0" stroke-linejoin="round" stroke-linecap="butt" d="m221.27428 130.82677l0 0c0 -5.0879745 4.1246185 -9.212593 9.212601 -9.212593l0 0c2.4433289 0 4.7865906 0.9706116 6.5142975 2.6983032c1.7276917 1.7276993 2.6983032 4.070961 2.6983032 6.51429l0 0c0 5.087982 -4.1246185 9.212601 -9.212601 9.212601l0 0c-5.087982 0 -9.212601 -4.1246185 -9.212601 -9.212601z" fill-rule="evenodd"/><path fill="#0000ff" d="m221.27428 130.82677l0 0c0 -5.0879745 4.1246185 -9.212593 9.212601 -9.212593l0 0c2.4433289 0 4.7865906 0.9706116 6.5142975 2.6983032c1.7276917 1.7276993 2.6983032 4.070961 2.6983032 6.51429l0 0c0 5.087982 -4.1246185 9.212601 -9.212601 9.212601l0 0c-5.087982 0 -9.212601 -4.1246185 -9.212601 -9.212601z" fill-rule="evenodd"/><path stroke="#000000" stroke-width="1.0" stroke-linejoin="round" stroke-linecap="butt" d="m221.27428 130.82677l0 0c0 -5.0879745 4.1246185 -9.212593 9.212601 -9.212593l0 0c2.4433289 0 4.7865906 0.9706116 6.5142975 2.6983032c1.7276917 1.7276993 2.6983032 4.070961 2.6983032 6.51429l0 0c0 5.087982 -4.1246185 9.212601 -9.212601 9.212601l0 0c-5.087982 0 -9.212601 -4.1246185 -9.212601 -9.212601z" fill-rule="evenodd"/><path fill="#0000ff" d="m241.69948 171.08923l0 0c0 -5.087967 4.1246185 -9.212585 9.212601 -9.212585l0 0c2.4433289 0 4.7865906 0.9705963 6.514282 2.6983032c1.7276917 1.7276917 2.6983032 4.0709534 2.6983032 6.514282l0 0c0 5.087982 -4.1246033 9.212601 -9.212585 9.212601l0 0c-5.087982 0 -9.212601 -4.1246185 -9.212601 -9.212601z" fill-rule="evenodd"/><path stroke="#000000" stroke-width="1.0" stroke-linejoin="round" stroke-linecap="butt" d="m241.69948 171.08923l0 0c0 -5.087967 4.1246185 -9.212585 9.212601 -9.212585l0 0c2.4433289 0 4.7865906 0.9705963 6.514282 2.6983032c1.7276917 1.7276917 2.6983032 4.0709534 2.6983032 6.514282l0 0c0 5.087982 -4.1246033 9.212601 -9.212585 9.212601l0 0c-5.087982 0 -9.212601 -4.1246185 -9.212601 -9.212601z" fill-rule="evenodd"/><path fill="#0000ff" d="m221.56824 212.52756l0 0c0 -5.087982 4.1246185 -9.212601 9.212601 -9.212601l0 0c2.4433289 0 4.7865906 0.9706116 6.5142975 2.6983185c1.7276917 1.7276917 2.6983032 4.0709534 2.6983032 6.514282l0 0c0 5.087982 -4.1246185 9.212601 -9.212601 9.212601l0 0c-5.087982 0 -9.212601 -4.1246185 -9.212601 -9.212601z" fill-rule="evenodd"/><path stroke="#000000" stroke-width="1.0" stroke-linejoin="round" stroke-linecap="butt" d="m221.56824 212.52756l0 0c0 -5.087982 4.1246185 -9.212601 9.212601 -9.212601l0 0c2.4433289 0 4.7865906 0.9706116 6.5142975 2.6983185c1.7276917 1.7276917 2.6983032 4.0709534 2.6983032 6.514282l0 0c0 5.087982 -4.1246185 9.212601 -9.212601 9.212601l0 0c-5.087982 0 -9.212601 -4.1246185 -9.212601 -9.212601z" fill-rule="evenodd"/><path fill="#0000ff" d="m169.01837 212.38058l0 0c0 -5.087982 4.1246185 -9.212601 9.212601 -9.212601l0 0c2.4433289 0 4.7865906 0.9706116 6.514282 2.6983032c1.7277069 1.7276917 2.6983185 4.0709534 2.6983185 6.5142975l0 0c0 5.087967 -4.1246185 9.212585 -9.212601 9.212585l0 0c-5.087982 0 -9.212601 -4.1246185 -9.212601 -9.212585z" fill-rule="evenodd"/><path stroke="#000000" stroke-width="1.0" stroke-linejoin="round" stroke-linecap="butt" d="m169.01837 212.38058l0 0c0 -5.087982 4.1246185 -9.212601 9.212601 -9.212601l0 0c2.4433289 0 4.7865906 0.9706116 6.514282 2.6983032c1.7277069 1.7276917 2.6983185 4.0709534 2.6983185 6.5142975l0 0c0 5.087967 -4.1246185 9.212585 -9.212601 9.212585l0 0c-5.087982 0 -9.212601 -4.1246185 -9.212601 -9.212585z" fill-rule="evenodd"/><path fill="#0000ff" d="m147.51706 170.86876l0 0c0 -5.087967 4.1246185 -9.212585 9.212601 -9.212585l0 0c2.4433289 0 4.7865906 0.9706116 6.514282 2.6983032c1.7277069 1.7276917 2.6983185 4.0709534 2.6983185 6.514282l0 0c0 5.087982 -4.1246185 9.212601 -9.212601 9.212601l0 0c-5.087982 0 -9.212601 -4.1246185 -9.212601 -9.212601z" fill-rule="evenodd"/><path stroke="#000000" stroke-width="1.0" stroke-linejoin="round" stroke-linecap="butt" d="m147.51706 170.86876l0 0c0 -5.087967 4.1246185 -9.212585 9.212601 -9.212585l0 0c2.4433289 0 4.7865906 0.9706116 6.514282 2.6983032c1.7277069 1.7276917 2.6983185 4.0709534 2.6983185 6.514282l0 0c0 5.087982 -4.1246185 9.212601 -9.212601 9.212601l0 0c-5.087982 0 -9.212601 -4.1246185 -9.212601 -9.212601z" fill-rule="evenodd"/><path fill="#0000ff" d="m241.29002 171.4567l0 0c0 -5.087982 4.1246185 -9.212601 9.212601 -9.212601l0 0c2.4433289 0 4.7865906 0.9706116 6.514282 2.6983032c1.7276917 1.7277069 2.6983032 4.0709686 2.6983032 6.5142975l0 0c0 5.087982 -4.1246033 9.212601 -9.212585 9.212601l0 0c-5.087982 0 -9.212601 -4.1246185 -9.212601 -9.212601z" fill-rule="evenodd"/><path stroke="#000000" stroke-width="1.0" stroke-linejoin="round" stroke-linecap="butt" d="m241.29002 171.4567l0 0c0 -5.087982 4.1246185 -9.212601 9.212601 -9.212601l0 0c2.4433289 0 4.7865906 0.9706116 6.514282 2.6983032c1.7276917 1.7277069 2.6983032 4.0709686 2.6983032 6.5142975l0 0c0 5.087982 -4.1246033 9.212601 -9.212585 9.212601l0 0c-5.087982 0 -9.212601 -4.1246185 -9.212601 -9.212601z" fill-rule="evenodd"/><path fill="#00ff00" d="m158.49475 157.24672l7.858261 -13.606293l7.8582764 13.606293z" fill-rule="evenodd"/><path stroke="#000000" stroke-width="1.0" stroke-linejoin="round" stroke-linecap="butt" d="m158.49475 157.24672l7.858261 -13.606293l7.8582764 13.606293z" fill-rule="evenodd"/><path fill="#00ff00" d="m195.01968 134.41208l7.8582764 -13.606308l7.858261 13.606308z" fill-rule="evenodd"/><path stroke="#000000" stroke-width="1.0" stroke-linejoin="round" stroke-linecap="butt" d="m195.01968 134.41208l7.8582764 -13.606308l7.858261 13.606308z" fill-rule="evenodd"/><path fill="#00ff00" d="m233.13518 157.5958l7.858261 -13.606293l7.858261 13.606293z" fill-rule="evenodd"/><path stroke="#000000" stroke-width="1.0" stroke-linejoin="round" stroke-linecap="butt" d="m233.13518 157.5958l7.858261 -13.606293l7.858261 13.606293z" fill-rule="evenodd"/><path fill="#00ff00" d="m232.83858 199.07086l7.8582764 -13.606293l7.858261 13.606293z" fill-rule="evenodd"/><path stroke="#000000" stroke-width="1.0" stroke-linejoin="round" stroke-linecap="butt" d="m232.83858 199.07086l7.8582764 -13.606293l7.858261 13.606293z" fill-rule="evenodd"/><path fill="#00ff00" d="m196.64699 219.18373l7.858261 -13.606308l7.858261 13.606308z" fill-rule="evenodd"/><path stroke="#000000" stroke-width="1.0" stroke-linejoin="round" stroke-linecap="butt" d="m196.64699 219.18373l7.858261 -13.606308l7.858261 13.606308z" fill-rule="evenodd"/><path fill="#00ff00" d="m158.78871 198.42783l7.8582764 -13.606308l7.858261 13.606308z" fill-rule="evenodd"/><path stroke="#000000" stroke-width="1.0" stroke-linejoin="round" stroke-linecap="butt" d="m158.78871 198.42783l7.8582764 -13.606308l7.858261 13.606308z" fill-rule="evenodd"/><path fill="#980000" d="m190.96457 171.4567l12.708664 -12.708664l12.708664 12.708664l-12.708664 12.708664z" fill-rule="evenodd"/><path stroke="#000000" stroke-width="1.0" stroke-linejoin="round" stroke-linecap="butt" d="m190.96457 171.4567l12.708664 -12.708664l12.708664 12.708664l-12.708664 12.708664z" fill-rule="evenodd"/></g></svg>