<?xml version="1.0" encoding="utf-8" standalone="no"?>
<!DOCTYPE svg PUBLIC "-//W3C//DTD SVG 1.1//EN"
  "http://www.w3.org/Graphics/SVG/1.1/DTD/svg11.dtd">
<!-- Created with matplotlib (https://matplotlib.org/) -->
<svg height="302.4pt" version="1.1" viewBox="0 0 446.4 302.4" width="446.4pt" xmlns="http://www.w3.org/2000/svg" xmlns:xlink="http://www.w3.org/1999/xlink">
 <defs>
  <style type="text/css">
*{stroke-linecap:butt;stroke-linejoin:round;}
  </style>
 </defs>
 <g id="figure_1">
  <g id="patch_1">
   <path d="M 0 302.4 
L 446.4 302.4 
L 446.4 0 
L 0 0 
z
" style="fill:#ffffff;"/>
  </g>
  <g id="axes_1">
   <g id="LineCollection_1">
    <path clip-path="url(#p93420529ef)" d="M 26.964307 87.838643 
L 26.836364 107.113763 
" style="fill:none;stroke:#000000;"/>
    <path clip-path="url(#p93420529ef)" d="M 26.964307 87.838643 
L 52.268701 79.41474 
" style="fill:none;stroke:#000000;"/>
    <path clip-path="url(#p93420529ef)" d="M 26.836364 107.113763 
L 51.901287 133.939057 
" style="fill:none;stroke:#000000;"/>
    <path clip-path="url(#p93420529ef)" d="M 51.901287 133.939057 
L 61.027941 175.817763 
" style="fill:none;stroke:#000000;"/>
    <path clip-path="url(#p93420529ef)" d="M 51.901287 133.939057 
L 89.816668 121.841741 
" style="fill:none;stroke:#000000;"/>
    <path clip-path="url(#p93420529ef)" d="M 61.027941 175.817763 
L 90.960784 213.48045 
" style="fill:none;stroke:#000000;"/>
    <path clip-path="url(#p93420529ef)" d="M 90.960784 213.48045 
L 100.089181 250.148411 
" style="fill:none;stroke:#000000;"/>
    <path clip-path="url(#p93420529ef)" d="M 90.960784 213.48045 
L 128.731127 203.809075 
" style="fill:none;stroke:#000000;"/>
    <path clip-path="url(#p93420529ef)" d="M 100.089181 250.148411 
L 125.012326 269.870544 
" style="fill:none;stroke:#000000;"/>
    <path clip-path="url(#p93420529ef)" d="M 125.012326 269.870544 
L 162.532656 269.269251 
" style="fill:none;stroke:#000000;"/>
    <path clip-path="url(#p93420529ef)" d="M 52.268701 79.41474 
L 99.503069 83.284725 
" style="fill:none;stroke:#000000;"/>
    <path clip-path="url(#p93420529ef)" d="M 99.503069 83.284725 
L 89.816668 121.841741 
" style="fill:none;stroke:#000000;"/>
    <path clip-path="url(#p93420529ef)" d="M 99.503069 83.284725 
L 172.293784 60.228811 
" style="fill:none;stroke:#000000;"/>
    <path clip-path="url(#p93420529ef)" d="M 89.816668 121.841741 
L 135.158329 153.329314 
" style="fill:none;stroke:#000000;"/>
    <path clip-path="url(#p93420529ef)" d="M 135.158329 153.329314 
L 128.731127 203.809075 
" style="fill:none;stroke:#000000;"/>
    <path clip-path="url(#p93420529ef)" d="M 135.158329 153.329314 
L 198.222676 133.972461 
" style="fill:none;stroke:#000000;"/>
    <path clip-path="url(#p93420529ef)" d="M 128.731127 203.809075 
L 172.19434 235.607671 
" style="fill:none;stroke:#000000;"/>
    <path clip-path="url(#p93420529ef)" d="M 172.19434 235.607671 
L 162.532656 269.269251 
" style="fill:none;stroke:#000000;"/>
    <path clip-path="url(#p93420529ef)" d="M 172.19434 235.607671 
L 231.86311 219.289095 
" style="fill:none;stroke:#000000;"/>
    <path clip-path="url(#p93420529ef)" d="M 162.532656 269.269251 
L 198.174741 282.109091 
" style="fill:none;stroke:#000000;"/>
    <path clip-path="url(#p93420529ef)" d="M 198.174741 282.109091 
L 237.027491 272.529541 
" style="fill:none;stroke:#000000;"/>
    <path clip-path="url(#p93420529ef)" d="M 209.372509 29.870459 
L 172.293784 60.228811 
" style="fill:none;stroke:#000000;"/>
    <path clip-path="url(#p93420529ef)" d="M 209.372509 29.870459 
L 248.225259 20.290909 
" style="fill:none;stroke:#000000;"/>
    <path clip-path="url(#p93420529ef)" d="M 172.293784 60.228811 
L 214.53689 83.110905 
" style="fill:none;stroke:#000000;"/>
    <path clip-path="url(#p93420529ef)" d="M 214.53689 83.110905 
L 198.222676 133.972461 
" style="fill:none;stroke:#000000;"/>
    <path clip-path="url(#p93420529ef)" d="M 214.53689 83.110905 
L 274.20566 66.792329 
" style="fill:none;stroke:#000000;"/>
    <path clip-path="url(#p93420529ef)" d="M 198.222676 133.972461 
L 248.177324 168.427539 
" style="fill:none;stroke:#000000;"/>
    <path clip-path="url(#p93420529ef)" d="M 248.177324 168.427539 
L 231.86311 219.289095 
" style="fill:none;stroke:#000000;"/>
    <path clip-path="url(#p93420529ef)" d="M 248.177324 168.427539 
L 311.241671 149.070686 
" style="fill:none;stroke:#000000;"/>
    <path clip-path="url(#p93420529ef)" d="M 231.86311 219.289095 
L 274.106216 242.171189 
" style="fill:none;stroke:#000000;"/>
    <path clip-path="url(#p93420529ef)" d="M 274.106216 242.171189 
L 237.027491 272.529541 
" style="fill:none;stroke:#000000;"/>
    <path clip-path="url(#p93420529ef)" d="M 274.106216 242.171189 
L 346.896931 219.115275 
" style="fill:none;stroke:#000000;"/>
    <path clip-path="url(#p93420529ef)" d="M 248.225259 20.290909 
L 283.867344 33.130749 
" style="fill:none;stroke:#000000;"/>
    <path clip-path="url(#p93420529ef)" d="M 283.867344 33.130749 
L 274.20566 66.792329 
" style="fill:none;stroke:#000000;"/>
    <path clip-path="url(#p93420529ef)" d="M 283.867344 33.130749 
L 321.387674 32.529456 
" style="fill:none;stroke:#000000;"/>
    <path clip-path="url(#p93420529ef)" d="M 274.20566 66.792329 
L 317.668873 98.590925 
" style="fill:none;stroke:#000000;"/>
    <path clip-path="url(#p93420529ef)" d="M 317.668873 98.590925 
L 311.241671 149.070686 
" style="fill:none;stroke:#000000;"/>
    <path clip-path="url(#p93420529ef)" d="M 317.668873 98.590925 
L 355.439216 88.91955 
" style="fill:none;stroke:#000000;"/>
    <path clip-path="url(#p93420529ef)" d="M 311.241671 149.070686 
L 356.583332 180.558259 
" style="fill:none;stroke:#000000;"/>
    <path clip-path="url(#p93420529ef)" d="M 356.583332 180.558259 
L 346.896931 219.115275 
" style="fill:none;stroke:#000000;"/>
    <path clip-path="url(#p93420529ef)" d="M 356.583332 180.558259 
L 394.498713 168.460943 
" style="fill:none;stroke:#000000;"/>
    <path clip-path="url(#p93420529ef)" d="M 346.896931 219.115275 
L 394.131299 222.98526 
" style="fill:none;stroke:#000000;"/>
    <path clip-path="url(#p93420529ef)" d="M 394.131299 222.98526 
L 419.435693 214.561357 
" style="fill:none;stroke:#000000;"/>
    <path clip-path="url(#p93420529ef)" d="M 321.387674 32.529456 
L 346.310819 52.251589 
" style="fill:none;stroke:#000000;"/>
    <path clip-path="url(#p93420529ef)" d="M 346.310819 52.251589 
L 355.439216 88.91955 
" style="fill:none;stroke:#000000;"/>
    <path clip-path="url(#p93420529ef)" d="M 355.439216 88.91955 
L 385.372059 126.582237 
" style="fill:none;stroke:#000000;"/>
    <path clip-path="url(#p93420529ef)" d="M 385.372059 126.582237 
L 394.498713 168.460943 
" style="fill:none;stroke:#000000;"/>
    <path clip-path="url(#p93420529ef)" d="M 394.498713 168.460943 
L 419.563636 195.286237 
" style="fill:none;stroke:#000000;"/>
    <path clip-path="url(#p93420529ef)" d="M 419.563636 195.286237 
L 419.435693 214.561357 
" style="fill:none;stroke:#000000;"/>
   </g>
   <g id="PathCollection_1">
    <defs>
     <path d="M 0 8.660254 
C 2.296726 8.660254 4.499694 7.747755 6.123724 6.123724 
C 7.747755 4.499694 8.660254 2.296726 8.660254 0 
C 8.660254 -2.296726 7.747755 -4.499694 6.123724 -6.123724 
C 4.499694 -7.747755 2.296726 -8.660254 0 -8.660254 
C -2.296726 -8.660254 -4.499694 -7.747755 -6.123724 -6.123724 
C -7.747755 -4.499694 -8.660254 -2.296726 -8.660254 0 
C -8.660254 2.296726 -7.747755 4.499694 -6.123724 6.123724 
C -4.499694 7.747755 -2.296726 8.660254 0 8.660254 
z
" id="m5d1b8e6887" style="stroke:#1f78b4;"/>
    </defs>
    <g clip-path="url(#p93420529ef)">
     <use style="fill:#1f78b4;stroke:#1f78b4;" x="26.964307" xlink:href="#m5d1b8e6887" y="87.838643"/>
     <use style="fill:#1f78b4;stroke:#1f78b4;" x="26.836364" xlink:href="#m5d1b8e6887" y="107.113763"/>
     <use style="fill:#1f78b4;stroke:#1f78b4;" x="51.901287" xlink:href="#m5d1b8e6887" y="133.939057"/>
     <use style="fill:#1f78b4;stroke:#1f78b4;" x="61.027941" xlink:href="#m5d1b8e6887" y="175.817763"/>
     <use style="fill:#1f78b4;stroke:#1f78b4;" x="90.960784" xlink:href="#m5d1b8e6887" y="213.48045"/>
     <use style="fill:#1f78b4;stroke:#1f78b4;" x="100.089181" xlink:href="#m5d1b8e6887" y="250.148411"/>
     <use style="fill:#1f78b4;stroke:#1f78b4;" x="125.012326" xlink:href="#m5d1b8e6887" y="269.870544"/>
     <use style="fill:#1f78b4;stroke:#1f78b4;" x="52.268701" xlink:href="#m5d1b8e6887" y="79.41474"/>
     <use style="fill:#1f78b4;stroke:#1f78b4;" x="99.503069" xlink:href="#m5d1b8e6887" y="83.284725"/>
     <use style="fill:#1f78b4;stroke:#1f78b4;" x="89.816668" xlink:href="#m5d1b8e6887" y="121.841741"/>
     <use style="fill:#1f78b4;stroke:#1f78b4;" x="135.158329" xlink:href="#m5d1b8e6887" y="153.329314"/>
     <use style="fill:#1f78b4;stroke:#1f78b4;" x="128.731127" xlink:href="#m5d1b8e6887" y="203.809075"/>
     <use style="fill:#1f78b4;stroke:#1f78b4;" x="172.19434" xlink:href="#m5d1b8e6887" y="235.607671"/>
     <use style="fill:#1f78b4;stroke:#1f78b4;" x="162.532656" xlink:href="#m5d1b8e6887" y="269.269251"/>
     <use style="fill:#1f78b4;stroke:#1f78b4;" x="198.174741" xlink:href="#m5d1b8e6887" y="282.109091"/>
     <use style="fill:#1f78b4;stroke:#1f78b4;" x="209.372509" xlink:href="#m5d1b8e6887" y="29.870459"/>
     <use style="fill:#1f78b4;stroke:#1f78b4;" x="172.293784" xlink:href="#m5d1b8e6887" y="60.228811"/>
     <use style="fill:#1f78b4;stroke:#1f78b4;" x="214.53689" xlink:href="#m5d1b8e6887" y="83.110905"/>
     <use style="fill:#1f78b4;stroke:#1f78b4;" x="198.222676" xlink:href="#m5d1b8e6887" y="133.972461"/>
     <use style="fill:#1f78b4;stroke:#1f78b4;" x="248.177324" xlink:href="#m5d1b8e6887" y="168.427539"/>
     <use style="fill:#1f78b4;stroke:#1f78b4;" x="231.86311" xlink:href="#m5d1b8e6887" y="219.289095"/>
     <use style="fill:#1f78b4;stroke:#1f78b4;" x="274.106216" xlink:href="#m5d1b8e6887" y="242.171189"/>
     <use style="fill:#1f78b4;stroke:#1f78b4;" x="237.027491" xlink:href="#m5d1b8e6887" y="272.529541"/>
     <use style="fill:#1f78b4;stroke:#1f78b4;" x="248.225259" xlink:href="#m5d1b8e6887" y="20.290909"/>
     <use style="fill:#1f78b4;stroke:#1f78b4;" x="283.867344" xlink:href="#m5d1b8e6887" y="33.130749"/>
     <use style="fill:#1f78b4;stroke:#1f78b4;" x="274.20566" xlink:href="#m5d1b8e6887" y="66.792329"/>
     <use style="fill:#1f78b4;stroke:#1f78b4;" x="317.668873" xlink:href="#m5d1b8e6887" y="98.590925"/>
     <use style="fill:#1f78b4;stroke:#1f78b4;" x="311.241671" xlink:href="#m5d1b8e6887" y="149.070686"/>
     <use style="fill:#1f78b4;stroke:#1f78b4;" x="356.583332" xlink:href="#m5d1b8e6887" y="180.558259"/>
     <use style="fill:#1f78b4;stroke:#1f78b4;" x="346.896931" xlink:href="#m5d1b8e6887" y="219.115275"/>
     <use style="fill:#1f78b4;stroke:#1f78b4;" x="394.131299" xlink:href="#m5d1b8e6887" y="222.98526"/>
     <use style="fill:#1f78b4;stroke:#1f78b4;" x="321.387674" xlink:href="#m5d1b8e6887" y="32.529456"/>
     <use style="fill:#1f78b4;stroke:#1f78b4;" x="346.310819" xlink:href="#m5d1b8e6887" y="52.251589"/>
     <use style="fill:#1f78b4;stroke:#1f78b4;" x="355.439216" xlink:href="#m5d1b8e6887" y="88.91955"/>
     <use style="fill:#1f78b4;stroke:#1f78b4;" x="385.372059" xlink:href="#m5d1b8e6887" y="126.582237"/>
     <use style="fill:#1f78b4;stroke:#1f78b4;" x="394.498713" xlink:href="#m5d1b8e6887" y="168.460943"/>
     <use style="fill:#1f78b4;stroke:#1f78b4;" x="419.563636" xlink:href="#m5d1b8e6887" y="195.286237"/>
     <use style="fill:#1f78b4;stroke:#1f78b4;" x="419.435693" xlink:href="#m5d1b8e6887" y="214.561357"/>
    </g>
   </g>
   <g id="text_1">
    <g clip-path="url(#p93420529ef)">
     <!-- (0, 0) -->
     <defs>
      <path d="M 31 75.875 
Q 24.46875 64.65625 21.28125 53.65625 
Q 18.109375 42.671875 18.109375 31.390625 
Q 18.109375 20.125 21.3125 9.0625 
Q 24.515625 -2 31 -13.1875 
L 23.1875 -13.1875 
Q 15.875 -1.703125 12.234375 9.375 
Q 8.59375 20.453125 8.59375 31.390625 
Q 8.59375 42.28125 12.203125 53.3125 
Q 15.828125 64.359375 23.1875 75.875 
z
" id="DejaVuSans-40"/>
      <path d="M 31.78125 66.40625 
Q 24.171875 66.40625 20.328125 58.90625 
Q 16.5 51.421875 16.5 36.375 
Q 16.5 21.390625 20.328125 13.890625 
Q 24.171875 6.390625 31.78125 6.390625 
Q 39.453125 6.390625 43.28125 13.890625 
Q 47.125 21.390625 47.125 36.375 
Q 47.125 51.421875 43.28125 58.90625 
Q 39.453125 66.40625 31.78125 66.40625 
z
M 31.78125 74.21875 
Q 44.046875 74.21875 50.515625 64.515625 
Q 56.984375 54.828125 56.984375 36.375 
Q 56.984375 17.96875 50.515625 8.265625 
Q 44.046875 -1.421875 31.78125 -1.421875 
Q 19.53125 -1.421875 13.0625 8.265625 
Q 6.59375 17.96875 6.59375 36.375 
Q 6.59375 54.828125 13.0625 64.515625 
Q 19.53125 74.21875 31.78125 74.21875 
z
" id="DejaVuSans-48"/>
      <path d="M 11.71875 12.40625 
L 22.015625 12.40625 
L 22.015625 4 
L 14.015625 -11.625 
L 7.71875 -11.625 
L 11.71875 4 
z
" id="DejaVuSans-44"/>
      <path id="DejaVuSans-32"/>
      <path d="M 8.015625 75.875 
L 15.828125 75.875 
Q 23.140625 64.359375 26.78125 53.3125 
Q 30.421875 42.28125 30.421875 31.390625 
Q 30.421875 20.453125 26.78125 9.375 
Q 23.140625 -1.703125 15.828125 -13.1875 
L 8.015625 -13.1875 
Q 14.5 -2 17.703125 9.0625 
Q 20.90625 20.125 20.90625 31.390625 
Q 20.90625 42.671875 17.703125 53.65625 
Q 14.5 64.65625 8.015625 75.875 
z
" id="DejaVuSans-41"/>
     </defs>
     <g transform="translate(10.833682 91.149893)scale(0.12 -0.12)">
      <use xlink:href="#DejaVuSans-40"/>
      <use x="39.013672" xlink:href="#DejaVuSans-48"/>
      <use x="102.636719" xlink:href="#DejaVuSans-44"/>
      <use x="134.423828" xlink:href="#DejaVuSans-32"/>
      <use x="166.210938" xlink:href="#DejaVuSans-48"/>
      <use x="229.833984" xlink:href="#DejaVuSans-41"/>
     </g>
    </g>
   </g>
   <g id="text_2">
    <g clip-path="url(#p93420529ef)">
     <!-- (0, 1) -->
     <defs>
      <path d="M 12.40625 8.296875 
L 28.515625 8.296875 
L 28.515625 63.921875 
L 10.984375 60.40625 
L 10.984375 69.390625 
L 28.421875 72.90625 
L 38.28125 72.90625 
L 38.28125 8.296875 
L 54.390625 8.296875 
L 54.390625 0 
L 12.40625 0 
z
" id="DejaVuSans-49"/>
     </defs>
     <g transform="translate(10.705739 110.425013)scale(0.12 -0.12)">
      <use xlink:href="#DejaVuSans-40"/>
      <use x="39.013672" xlink:href="#DejaVuSans-48"/>
      <use x="102.636719" xlink:href="#DejaVuSans-44"/>
      <use x="134.423828" xlink:href="#DejaVuSans-32"/>
      <use x="166.210938" xlink:href="#DejaVuSans-49"/>
      <use x="229.833984" xlink:href="#DejaVuSans-41"/>
     </g>
    </g>
   </g>
   <g id="text_3">
    <g clip-path="url(#p93420529ef)">
     <!-- (0, 2) -->
     <defs>
      <path d="M 19.1875 8.296875 
L 53.609375 8.296875 
L 53.609375 0 
L 7.328125 0 
L 7.328125 8.296875 
Q 12.9375 14.109375 22.625 23.890625 
Q 32.328125 33.6875 34.8125 36.53125 
Q 39.546875 41.84375 41.421875 45.53125 
Q 43.3125 49.21875 43.3125 52.78125 
Q 43.3125 58.59375 39.234375 62.25 
Q 35.15625 65.921875 28.609375 65.921875 
Q 23.96875 65.921875 18.8125 64.3125 
Q 13.671875 62.703125 7.8125 59.421875 
L 7.8125 69.390625 
Q 13.765625 71.78125 18.9375 73 
Q 24.125 74.21875 28.421875 74.21875 
Q 39.75 74.21875 46.484375 68.546875 
Q 53.21875 62.890625 53.21875 53.421875 
Q 53.21875 48.921875 51.53125 44.890625 
Q 49.859375 40.875 45.40625 35.40625 
Q 44.1875 33.984375 37.640625 27.21875 
Q 31.109375 20.453125 19.1875 8.296875 
z
" id="DejaVuSans-50"/>
     </defs>
     <g transform="translate(35.770662 137.250307)scale(0.12 -0.12)">
      <use xlink:href="#DejaVuSans-40"/>
      <use x="39.013672" xlink:href="#DejaVuSans-48"/>
      <use x="102.636719" xlink:href="#DejaVuSans-44"/>
      <use x="134.423828" xlink:href="#DejaVuSans-32"/>
      <use x="166.210938" xlink:href="#DejaVuSans-50"/>
      <use x="229.833984" xlink:href="#DejaVuSans-41"/>
     </g>
    </g>
   </g>
   <g id="text_4">
    <g clip-path="url(#p93420529ef)">
     <!-- (0, 3) -->
     <defs>
      <path d="M 40.578125 39.3125 
Q 47.65625 37.796875 51.625 33 
Q 55.609375 28.21875 55.609375 21.1875 
Q 55.609375 10.40625 48.1875 4.484375 
Q 40.765625 -1.421875 27.09375 -1.421875 
Q 22.515625 -1.421875 17.65625 -0.515625 
Q 12.796875 0.390625 7.625 2.203125 
L 7.625 11.71875 
Q 11.71875 9.328125 16.59375 8.109375 
Q 21.484375 6.890625 26.8125 6.890625 
Q 36.078125 6.890625 40.9375 10.546875 
Q 45.796875 14.203125 45.796875 21.1875 
Q 45.796875 27.640625 41.28125 31.265625 
Q 36.765625 34.90625 28.71875 34.90625 
L 20.21875 34.90625 
L 20.21875 43.015625 
L 29.109375 43.015625 
Q 36.375 43.015625 40.234375 45.921875 
Q 44.09375 48.828125 44.09375 54.296875 
Q 44.09375 59.90625 40.109375 62.90625 
Q 36.140625 65.921875 28.71875 65.921875 
Q 24.65625 65.921875 20.015625 65.03125 
Q 15.375 64.15625 9.8125 62.3125 
L 9.8125 71.09375 
Q 15.4375 72.65625 20.34375 73.4375 
Q 25.25 74.21875 29.59375 74.21875 
Q 40.828125 74.21875 47.359375 69.109375 
Q 53.90625 64.015625 53.90625 55.328125 
Q 53.90625 49.265625 50.4375 45.09375 
Q 46.96875 40.921875 40.578125 39.3125 
z
" id="DejaVuSans-51"/>
     </defs>
     <g transform="translate(44.897316 179.129013)scale(0.12 -0.12)">
      <use xlink:href="#DejaVuSans-40"/>
      <use x="39.013672" xlink:href="#DejaVuSans-48"/>
      <use x="102.636719" xlink:href="#DejaVuSans-44"/>
      <use x="134.423828" xlink:href="#DejaVuSans-32"/>
      <use x="166.210938" xlink:href="#DejaVuSans-51"/>
      <use x="229.833984" xlink:href="#DejaVuSans-41"/>
     </g>
    </g>
   </g>
   <g id="text_5">
    <g clip-path="url(#p93420529ef)">
     <!-- (0, 4) -->
     <defs>
      <path d="M 37.796875 64.3125 
L 12.890625 25.390625 
L 37.796875 25.390625 
z
M 35.203125 72.90625 
L 47.609375 72.90625 
L 47.609375 25.390625 
L 58.015625 25.390625 
L 58.015625 17.1875 
L 47.609375 17.1875 
L 47.609375 0 
L 37.796875 0 
L 37.796875 17.1875 
L 4.890625 17.1875 
L 4.890625 26.703125 
z
" id="DejaVuSans-52"/>
     </defs>
     <g transform="translate(74.830159 216.7917)scale(0.12 -0.12)">
      <use xlink:href="#DejaVuSans-40"/>
      <use x="39.013672" xlink:href="#DejaVuSans-48"/>
      <use x="102.636719" xlink:href="#DejaVuSans-44"/>
      <use x="134.423828" xlink:href="#DejaVuSans-32"/>
      <use x="166.210938" xlink:href="#DejaVuSans-52"/>
      <use x="229.833984" xlink:href="#DejaVuSans-41"/>
     </g>
    </g>
   </g>
   <g id="text_6">
    <g clip-path="url(#p93420529ef)">
     <!-- (0, 5) -->
     <defs>
      <path d="M 10.796875 72.90625 
L 49.515625 72.90625 
L 49.515625 64.59375 
L 19.828125 64.59375 
L 19.828125 46.734375 
Q 21.96875 47.46875 24.109375 47.828125 
Q 26.265625 48.1875 28.421875 48.1875 
Q 40.625 48.1875 47.75 41.5 
Q 54.890625 34.8125 54.890625 23.390625 
Q 54.890625 11.625 47.5625 5.09375 
Q 40.234375 -1.421875 26.90625 -1.421875 
Q 22.3125 -1.421875 17.546875 -0.640625 
Q 12.796875 0.140625 7.71875 1.703125 
L 7.71875 11.625 
Q 12.109375 9.234375 16.796875 8.0625 
Q 21.484375 6.890625 26.703125 6.890625 
Q 35.15625 6.890625 40.078125 11.328125 
Q 45.015625 15.765625 45.015625 23.390625 
Q 45.015625 31 40.078125 35.4375 
Q 35.15625 39.890625 26.703125 39.890625 
Q 22.75 39.890625 18.8125 39.015625 
Q 14.890625 38.140625 10.796875 36.28125 
z
" id="DejaVuSans-53"/>
     </defs>
     <g transform="translate(83.958556 253.459661)scale(0.12 -0.12)">
      <use xlink:href="#DejaVuSans-40"/>
      <use x="39.013672" xlink:href="#DejaVuSans-48"/>
      <use x="102.636719" xlink:href="#DejaVuSans-44"/>
      <use x="134.423828" xlink:href="#DejaVuSans-32"/>
      <use x="166.210938" xlink:href="#DejaVuSans-53"/>
      <use x="229.833984" xlink:href="#DejaVuSans-41"/>
     </g>
    </g>
   </g>
   <g id="text_7">
    <g clip-path="url(#p93420529ef)">
     <!-- (0, 6) -->
     <defs>
      <path d="M 33.015625 40.375 
Q 26.375 40.375 22.484375 35.828125 
Q 18.609375 31.296875 18.609375 23.390625 
Q 18.609375 15.53125 22.484375 10.953125 
Q 26.375 6.390625 33.015625 6.390625 
Q 39.65625 6.390625 43.53125 10.953125 
Q 47.40625 15.53125 47.40625 23.390625 
Q 47.40625 31.296875 43.53125 35.828125 
Q 39.65625 40.375 33.015625 40.375 
z
M 52.59375 71.296875 
L 52.59375 62.3125 
Q 48.875 64.0625 45.09375 64.984375 
Q 41.3125 65.921875 37.59375 65.921875 
Q 27.828125 65.921875 22.671875 59.328125 
Q 17.53125 52.734375 16.796875 39.40625 
Q 19.671875 43.65625 24.015625 45.921875 
Q 28.375 48.1875 33.59375 48.1875 
Q 44.578125 48.1875 50.953125 41.515625 
Q 57.328125 34.859375 57.328125 23.390625 
Q 57.328125 12.15625 50.6875 5.359375 
Q 44.046875 -1.421875 33.015625 -1.421875 
Q 20.359375 -1.421875 13.671875 8.265625 
Q 6.984375 17.96875 6.984375 36.375 
Q 6.984375 53.65625 15.1875 63.9375 
Q 23.390625 74.21875 37.203125 74.21875 
Q 40.921875 74.21875 44.703125 73.484375 
Q 48.484375 72.75 52.59375 71.296875 
z
" id="DejaVuSans-54"/>
     </defs>
     <g transform="translate(108.881701 273.181794)scale(0.12 -0.12)">
      <use xlink:href="#DejaVuSans-40"/>
      <use x="39.013672" xlink:href="#DejaVuSans-48"/>
      <use x="102.636719" xlink:href="#DejaVuSans-44"/>
      <use x="134.423828" xlink:href="#DejaVuSans-32"/>
      <use x="166.210938" xlink:href="#DejaVuSans-54"/>
      <use x="229.833984" xlink:href="#DejaVuSans-41"/>
     </g>
    </g>
   </g>
   <g id="text_8">
    <g clip-path="url(#p93420529ef)">
     <!-- (1, 0) -->
     <g transform="translate(36.138076 82.72599)scale(0.12 -0.12)">
      <use xlink:href="#DejaVuSans-40"/>
      <use x="39.013672" xlink:href="#DejaVuSans-49"/>
      <use x="102.636719" xlink:href="#DejaVuSans-44"/>
      <use x="134.423828" xlink:href="#DejaVuSans-32"/>
      <use x="166.210938" xlink:href="#DejaVuSans-48"/>
      <use x="229.833984" xlink:href="#DejaVuSans-41"/>
     </g>
    </g>
   </g>
   <g id="text_9">
    <g clip-path="url(#p93420529ef)">
     <!-- (1, 1) -->
     <g transform="translate(83.372444 86.595975)scale(0.12 -0.12)">
      <use xlink:href="#DejaVuSans-40"/>
      <use x="39.013672" xlink:href="#DejaVuSans-49"/>
      <use x="102.636719" xlink:href="#DejaVuSans-44"/>
      <use x="134.423828" xlink:href="#DejaVuSans-32"/>
      <use x="166.210938" xlink:href="#DejaVuSans-49"/>
      <use x="229.833984" xlink:href="#DejaVuSans-41"/>
     </g>
    </g>
   </g>
   <g id="text_10">
    <g clip-path="url(#p93420529ef)">
     <!-- (1, 2) -->
     <g transform="translate(73.686043 125.152991)scale(0.12 -0.12)">
      <use xlink:href="#DejaVuSans-40"/>
      <use x="39.013672" xlink:href="#DejaVuSans-49"/>
      <use x="102.636719" xlink:href="#DejaVuSans-44"/>
      <use x="134.423828" xlink:href="#DejaVuSans-32"/>
      <use x="166.210938" xlink:href="#DejaVuSans-50"/>
      <use x="229.833984" xlink:href="#DejaVuSans-41"/>
     </g>
    </g>
   </g>
   <g id="text_11">
    <g clip-path="url(#p93420529ef)">
     <!-- (1, 3) -->
     <g transform="translate(119.027704 156.640564)scale(0.12 -0.12)">
      <use xlink:href="#DejaVuSans-40"/>
      <use x="39.013672" xlink:href="#DejaVuSans-49"/>
      <use x="102.636719" xlink:href="#DejaVuSans-44"/>
      <use x="134.423828" xlink:href="#DejaVuSans-32"/>
      <use x="166.210938" xlink:href="#DejaVuSans-51"/>
      <use x="229.833984" xlink:href="#DejaVuSans-41"/>
     </g>
    </g>
   </g>
   <g id="text_12">
    <g clip-path="url(#p93420529ef)">
     <!-- (1, 4) -->
     <g transform="translate(112.600502 207.120325)scale(0.12 -0.12)">
      <use xlink:href="#DejaVuSans-40"/>
      <use x="39.013672" xlink:href="#DejaVuSans-49"/>
      <use x="102.636719" xlink:href="#DejaVuSans-44"/>
      <use x="134.423828" xlink:href="#DejaVuSans-32"/>
      <use x="166.210938" xlink:href="#DejaVuSans-52"/>
      <use x="229.833984" xlink:href="#DejaVuSans-41"/>
     </g>
    </g>
   </g>
   <g id="text_13">
    <g clip-path="url(#p93420529ef)">
     <!-- (1, 5) -->
     <g transform="translate(156.063715 238.918921)scale(0.12 -0.12)">
      <use xlink:href="#DejaVuSans-40"/>
      <use x="39.013672" xlink:href="#DejaVuSans-49"/>
      <use x="102.636719" xlink:href="#DejaVuSans-44"/>
      <use x="134.423828" xlink:href="#DejaVuSans-32"/>
      <use x="166.210938" xlink:href="#DejaVuSans-53"/>
      <use x="229.833984" xlink:href="#DejaVuSans-41"/>
     </g>
    </g>
   </g>
   <g id="text_14">
    <g clip-path="url(#p93420529ef)">
     <!-- (1, 6) -->
     <g transform="translate(146.402031 272.580501)scale(0.12 -0.12)">
      <use xlink:href="#DejaVuSans-40"/>
      <use x="39.013672" xlink:href="#DejaVuSans-49"/>
      <use x="102.636719" xlink:href="#DejaVuSans-44"/>
      <use x="134.423828" xlink:href="#DejaVuSans-32"/>
      <use x="166.210938" xlink:href="#DejaVuSans-54"/>
      <use x="229.833984" xlink:href="#DejaVuSans-41"/>
     </g>
    </g>
   </g>
   <g id="text_15">
    <g clip-path="url(#p93420529ef)">
     <!-- (1, 7) -->
     <defs>
      <path d="M 8.203125 72.90625 
L 55.078125 72.90625 
L 55.078125 68.703125 
L 28.609375 0 
L 18.3125 0 
L 43.21875 64.59375 
L 8.203125 64.59375 
z
" id="DejaVuSans-55"/>
     </defs>
     <g transform="translate(182.044116 285.420341)scale(0.12 -0.12)">
      <use xlink:href="#DejaVuSans-40"/>
      <use x="39.013672" xlink:href="#DejaVuSans-49"/>
      <use x="102.636719" xlink:href="#DejaVuSans-44"/>
      <use x="134.423828" xlink:href="#DejaVuSans-32"/>
      <use x="166.210938" xlink:href="#DejaVuSans-55"/>
      <use x="229.833984" xlink:href="#DejaVuSans-41"/>
     </g>
    </g>
   </g>
   <g id="text_16">
    <g clip-path="url(#p93420529ef)">
     <!-- (2, 0) -->
     <g transform="translate(193.241884 33.181709)scale(0.12 -0.12)">
      <use xlink:href="#DejaVuSans-40"/>
      <use x="39.013672" xlink:href="#DejaVuSans-50"/>
      <use x="102.636719" xlink:href="#DejaVuSans-44"/>
      <use x="134.423828" xlink:href="#DejaVuSans-32"/>
      <use x="166.210938" xlink:href="#DejaVuSans-48"/>
      <use x="229.833984" xlink:href="#DejaVuSans-41"/>
     </g>
    </g>
   </g>
   <g id="text_17">
    <g clip-path="url(#p93420529ef)">
     <!-- (2, 1) -->
     <g transform="translate(156.163159 63.540061)scale(0.12 -0.12)">
      <use xlink:href="#DejaVuSans-40"/>
      <use x="39.013672" xlink:href="#DejaVuSans-50"/>
      <use x="102.636719" xlink:href="#DejaVuSans-44"/>
      <use x="134.423828" xlink:href="#DejaVuSans-32"/>
      <use x="166.210938" xlink:href="#DejaVuSans-49"/>
      <use x="229.833984" xlink:href="#DejaVuSans-41"/>
     </g>
    </g>
   </g>
   <g id="text_18">
    <g clip-path="url(#p93420529ef)">
     <!-- (2, 2) -->
     <g transform="translate(198.406265 86.422155)scale(0.12 -0.12)">
      <use xlink:href="#DejaVuSans-40"/>
      <use x="39.013672" xlink:href="#DejaVuSans-50"/>
      <use x="102.636719" xlink:href="#DejaVuSans-44"/>
      <use x="134.423828" xlink:href="#DejaVuSans-32"/>
      <use x="166.210938" xlink:href="#DejaVuSans-50"/>
      <use x="229.833984" xlink:href="#DejaVuSans-41"/>
     </g>
    </g>
   </g>
   <g id="text_19">
    <g clip-path="url(#p93420529ef)">
     <!-- (2, 3) -->
     <g transform="translate(182.092051 137.283711)scale(0.12 -0.12)">
      <use xlink:href="#DejaVuSans-40"/>
      <use x="39.013672" xlink:href="#DejaVuSans-50"/>
      <use x="102.636719" xlink:href="#DejaVuSans-44"/>
      <use x="134.423828" xlink:href="#DejaVuSans-32"/>
      <use x="166.210938" xlink:href="#DejaVuSans-51"/>
      <use x="229.833984" xlink:href="#DejaVuSans-41"/>
     </g>
    </g>
   </g>
   <g id="text_20">
    <g clip-path="url(#p93420529ef)">
     <!-- (2, 4) -->
     <g transform="translate(232.046699 171.738789)scale(0.12 -0.12)">
      <use xlink:href="#DejaVuSans-40"/>
      <use x="39.013672" xlink:href="#DejaVuSans-50"/>
      <use x="102.636719" xlink:href="#DejaVuSans-44"/>
      <use x="134.423828" xlink:href="#DejaVuSans-32"/>
      <use x="166.210938" xlink:href="#DejaVuSans-52"/>
      <use x="229.833984" xlink:href="#DejaVuSans-41"/>
     </g>
    </g>
   </g>
   <g id="text_21">
    <g clip-path="url(#p93420529ef)">
     <!-- (2, 5) -->
     <g transform="translate(215.732485 222.600345)scale(0.12 -0.12)">
      <use xlink:href="#DejaVuSans-40"/>
      <use x="39.013672" xlink:href="#DejaVuSans-50"/>
      <use x="102.636719" xlink:href="#DejaVuSans-44"/>
      <use x="134.423828" xlink:href="#DejaVuSans-32"/>
      <use x="166.210938" xlink:href="#DejaVuSans-53"/>
      <use x="229.833984" xlink:href="#DejaVuSans-41"/>
     </g>
    </g>
   </g>
   <g id="text_22">
    <g clip-path="url(#p93420529ef)">
     <!-- (2, 6) -->
     <g transform="translate(257.975591 245.482439)scale(0.12 -0.12)">
      <use xlink:href="#DejaVuSans-40"/>
      <use x="39.013672" xlink:href="#DejaVuSans-50"/>
      <use x="102.636719" xlink:href="#DejaVuSans-44"/>
      <use x="134.423828" xlink:href="#DejaVuSans-32"/>
      <use x="166.210938" xlink:href="#DejaVuSans-54"/>
      <use x="229.833984" xlink:href="#DejaVuSans-41"/>
     </g>
    </g>
   </g>
   <g id="text_23">
    <g clip-path="url(#p93420529ef)">
     <!-- (2, 7) -->
     <g transform="translate(220.896866 275.840791)scale(0.12 -0.12)">
      <use xlink:href="#DejaVuSans-40"/>
      <use x="39.013672" xlink:href="#DejaVuSans-50"/>
      <use x="102.636719" xlink:href="#DejaVuSans-44"/>
      <use x="134.423828" xlink:href="#DejaVuSans-32"/>
      <use x="166.210938" xlink:href="#DejaVuSans-55"/>
      <use x="229.833984" xlink:href="#DejaVuSans-41"/>
     </g>
    </g>
   </g>
   <g id="text_24">
    <g clip-path="url(#p93420529ef)">
     <!-- (3, 0) -->
     <g transform="translate(232.094634 23.602159)scale(0.12 -0.12)">
      <use xlink:href="#DejaVuSans-40"/>
      <use x="39.013672" xlink:href="#DejaVuSans-51"/>
      <use x="102.636719" xlink:href="#DejaVuSans-44"/>
      <use x="134.423828" xlink:href="#DejaVuSans-32"/>
      <use x="166.210938" xlink:href="#DejaVuSans-48"/>
      <use x="229.833984" xlink:href="#DejaVuSans-41"/>
     </g>
    </g>
   </g>
   <g id="text_25">
    <g clip-path="url(#p93420529ef)">
     <!-- (3, 1) -->
     <g transform="translate(267.736719 36.441999)scale(0.12 -0.12)">
      <use xlink:href="#DejaVuSans-40"/>
      <use x="39.013672" xlink:href="#DejaVuSans-51"/>
      <use x="102.636719" xlink:href="#DejaVuSans-44"/>
      <use x="134.423828" xlink:href="#DejaVuSans-32"/>
      <use x="166.210938" xlink:href="#DejaVuSans-49"/>
      <use x="229.833984" xlink:href="#DejaVuSans-41"/>
     </g>
    </g>
   </g>
   <g id="text_26">
    <g clip-path="url(#p93420529ef)">
     <!-- (3, 2) -->
     <g transform="translate(258.075035 70.103579)scale(0.12 -0.12)">
      <use xlink:href="#DejaVuSans-40"/>
      <use x="39.013672" xlink:href="#DejaVuSans-51"/>
      <use x="102.636719" xlink:href="#DejaVuSans-44"/>
      <use x="134.423828" xlink:href="#DejaVuSans-32"/>
      <use x="166.210938" xlink:href="#DejaVuSans-50"/>
      <use x="229.833984" xlink:href="#DejaVuSans-41"/>
     </g>
    </g>
   </g>
   <g id="text_27">
    <g clip-path="url(#p93420529ef)">
     <!-- (3, 3) -->
     <g transform="translate(301.538248 101.902175)scale(0.12 -0.12)">
      <use xlink:href="#DejaVuSans-40"/>
      <use x="39.013672" xlink:href="#DejaVuSans-51"/>
      <use x="102.636719" xlink:href="#DejaVuSans-44"/>
      <use x="134.423828" xlink:href="#DejaVuSans-32"/>
      <use x="166.210938" xlink:href="#DejaVuSans-51"/>
      <use x="229.833984" xlink:href="#DejaVuSans-41"/>
     </g>
    </g>
   </g>
   <g id="text_28">
    <g clip-path="url(#p93420529ef)">
     <!-- (3, 4) -->
     <g transform="translate(295.111046 152.381936)scale(0.12 -0.12)">
      <use xlink:href="#DejaVuSans-40"/>
      <use x="39.013672" xlink:href="#DejaVuSans-51"/>
      <use x="102.636719" xlink:href="#DejaVuSans-44"/>
      <use x="134.423828" xlink:href="#DejaVuSans-32"/>
      <use x="166.210938" xlink:href="#DejaVuSans-52"/>
      <use x="229.833984" xlink:href="#DejaVuSans-41"/>
     </g>
    </g>
   </g>
   <g id="text_29">
    <g clip-path="url(#p93420529ef)">
     <!-- (3, 5) -->
     <g transform="translate(340.452707 183.869509)scale(0.12 -0.12)">
      <use xlink:href="#DejaVuSans-40"/>
      <use x="39.013672" xlink:href="#DejaVuSans-51"/>
      <use x="102.636719" xlink:href="#DejaVuSans-44"/>
      <use x="134.423828" xlink:href="#DejaVuSans-32"/>
      <use x="166.210938" xlink:href="#DejaVuSans-53"/>
      <use x="229.833984" xlink:href="#DejaVuSans-41"/>
     </g>
    </g>
   </g>
   <g id="text_30">
    <g clip-path="url(#p93420529ef)">
     <!-- (3, 6) -->
     <g transform="translate(330.766306 222.426525)scale(0.12 -0.12)">
      <use xlink:href="#DejaVuSans-40"/>
      <use x="39.013672" xlink:href="#DejaVuSans-51"/>
      <use x="102.636719" xlink:href="#DejaVuSans-44"/>
      <use x="134.423828" xlink:href="#DejaVuSans-32"/>
      <use x="166.210938" xlink:href="#DejaVuSans-54"/>
      <use x="229.833984" xlink:href="#DejaVuSans-41"/>
     </g>
    </g>
   </g>
   <g id="text_31">
    <g clip-path="url(#p93420529ef)">
     <!-- (3, 7) -->
     <g transform="translate(378.000674 226.29651)scale(0.12 -0.12)">
      <use xlink:href="#DejaVuSans-40"/>
      <use x="39.013672" xlink:href="#DejaVuSans-51"/>
      <use x="102.636719" xlink:href="#DejaVuSans-44"/>
      <use x="134.423828" xlink:href="#DejaVuSans-32"/>
      <use x="166.210938" xlink:href="#DejaVuSans-55"/>
      <use x="229.833984" xlink:href="#DejaVuSans-41"/>
     </g>
    </g>
   </g>
   <g id="text_32">
    <g clip-path="url(#p93420529ef)">
     <!-- (4, 1) -->
     <g transform="translate(305.257049 35.840706)scale(0.12 -0.12)">
      <use xlink:href="#DejaVuSans-40"/>
      <use x="39.013672" xlink:href="#DejaVuSans-52"/>
      <use x="102.636719" xlink:href="#DejaVuSans-44"/>
      <use x="134.423828" xlink:href="#DejaVuSans-32"/>
      <use x="166.210938" xlink:href="#DejaVuSans-49"/>
      <use x="229.833984" xlink:href="#DejaVuSans-41"/>
     </g>
    </g>
   </g>
   <g id="text_33">
    <g clip-path="url(#p93420529ef)">
     <!-- (4, 2) -->
     <g transform="translate(330.180194 55.562839)scale(0.12 -0.12)">
      <use xlink:href="#DejaVuSans-40"/>
      <use x="39.013672" xlink:href="#DejaVuSans-52"/>
      <use x="102.636719" xlink:href="#DejaVuSans-44"/>
      <use x="134.423828" xlink:href="#DejaVuSans-32"/>
      <use x="166.210938" xlink:href="#DejaVuSans-50"/>
      <use x="229.833984" xlink:href="#DejaVuSans-41"/>
     </g>
    </g>
   </g>
   <g id="text_34">
    <g clip-path="url(#p93420529ef)">
     <!-- (4, 3) -->
     <g transform="translate(339.308591 92.2308)scale(0.12 -0.12)">
      <use xlink:href="#DejaVuSans-40"/>
      <use x="39.013672" xlink:href="#DejaVuSans-52"/>
      <use x="102.636719" xlink:href="#DejaVuSans-44"/>
      <use x="134.423828" xlink:href="#DejaVuSans-32"/>
      <use x="166.210938" xlink:href="#DejaVuSans-51"/>
      <use x="229.833984" xlink:href="#DejaVuSans-41"/>
     </g>
    </g>
   </g>
   <g id="text_35">
    <g clip-path="url(#p93420529ef)">
     <!-- (4, 4) -->
     <g transform="translate(369.241434 129.893487)scale(0.12 -0.12)">
      <use xlink:href="#DejaVuSans-40"/>
      <use x="39.013672" xlink:href="#DejaVuSans-52"/>
      <use x="102.636719" xlink:href="#DejaVuSans-44"/>
      <use x="134.423828" xlink:href="#DejaVuSans-32"/>
      <use x="166.210938" xlink:href="#DejaVuSans-52"/>
      <use x="229.833984" xlink:href="#DejaVuSans-41"/>
     </g>
    </g>
   </g>
   <g id="text_36">
    <g clip-path="url(#p93420529ef)">
     <!-- (4, 5) -->
     <g transform="translate(378.368088 171.772193)scale(0.12 -0.12)">
      <use xlink:href="#DejaVuSans-40"/>
      <use x="39.013672" xlink:href="#DejaVuSans-52"/>
      <use x="102.636719" xlink:href="#DejaVuSans-44"/>
      <use x="134.423828" xlink:href="#DejaVuSans-32"/>
      <use x="166.210938" xlink:href="#DejaVuSans-53"/>
      <use x="229.833984" xlink:href="#DejaVuSans-41"/>
     </g>
    </g>
   </g>
   <g id="text_37">
    <g clip-path="url(#p93420529ef)">
     <!-- (4, 6) -->
     <g transform="translate(403.433011 198.597487)scale(0.12 -0.12)">
      <use xlink:href="#DejaVuSans-40"/>
      <use x="39.013672" xlink:href="#DejaVuSans-52"/>
      <use x="102.636719" xlink:href="#DejaVuSans-44"/>
      <use x="134.423828" xlink:href="#DejaVuSans-32"/>
      <use x="166.210938" xlink:href="#DejaVuSans-54"/>
      <use x="229.833984" xlink:href="#DejaVuSans-41"/>
     </g>
    </g>
   </g>
   <g id="text_38">
    <g clip-path="url(#p93420529ef)">
     <!-- (4, 7) -->
     <g transform="translate(403.305068 217.872607)scale(0.12 -0.12)">
      <use xlink:href="#DejaVuSans-40"/>
      <use x="39.013672" xlink:href="#DejaVuSans-52"/>
      <use x="102.636719" xlink:href="#DejaVuSans-44"/>
      <use x="134.423828" xlink:href="#DejaVuSans-32"/>
      <use x="166.210938" xlink:href="#DejaVuSans-55"/>
      <use x="229.833984" xlink:href="#DejaVuSans-41"/>
     </g>
    </g>
   </g>
  </g>
 </g>
 <defs>
  <clipPath id="p93420529ef">
   <rect height="288" width="432" x="7.2" y="7.2"/>
  </clipPath>
 </defs>
</svg>
